M48
METRIC,LZ,000.000
;FILE_FORMAT=3:3
;TYPE=PLATED
;Layer: PTH_Through_Via
;EasyEDA v6.5.42, 2024-04-19 21:15:47
;b74b0dd8b7a74548b8b14c9367106a0f,9fa9616398974da3a60ce9969dc7753a,10
;Gerber Generator version 0.2
;Holesize 1 = 0.310 mm
T01C0.310
%
G05
G90
T01
X017550Y012350
X012250Y011900
X038600Y012800
X038700Y011400
X034582Y013060
X035582Y013060
X035582Y014060
X034582Y014060
X002100Y007300
X009700Y007300
X031700Y014300
X006900Y008700
X013500Y018850
X018800Y019300
X024000Y017300
X025800Y019300
X031600Y018200
X023190Y018880
X032900Y010900
X030700Y009400
X027000Y011900
X024200Y011300
X025900Y007800
X039000Y017300
X046000Y012200
X041100Y012900
X046000Y014300
X065600Y020300
X064800Y020300
X022450Y011900
X013480Y020250
X012300Y013300
M30
