G04 Layer: InnerLayer2*
G04 EasyEDA v6.5.42, 2024-04-19 21:15:47*
G04 b74b0dd8b7a74548b8b14c9367106a0f,9fa9616398974da3a60ce9969dc7753a,10*
G04 Gerber Generator version 0.2*
G04 Scale: 100 percent, Rotated: No, Reflected: No *
G04 Dimensions in millimeters *
G04 leading zeros omitted , absolute positions ,4 integer and 5 decimal *
%FSLAX45Y45*%
%MOMM*%

%ADD10R,1.5000X1.5000*%
%ADD11C,1.5000*%
%ADD12C,1.7000*%
%ADD13R,1.5748X1.7000*%
%ADD14C,0.6200*%
%ADD15C,0.0124*%

%LPD*%
G36*
X336143Y25806D02*
G01*
X332232Y26568D01*
X328930Y28752D01*
X326745Y32054D01*
X325983Y35966D01*
X325983Y259384D01*
X325170Y265836D01*
X323088Y271373D01*
X319532Y276504D01*
X316484Y279552D01*
X312928Y282194D01*
X307340Y284683D01*
X299923Y285902D01*
X36169Y285902D01*
X32258Y286664D01*
X28956Y288848D01*
X26771Y292150D01*
X26009Y296062D01*
X26009Y1394917D01*
X26771Y1398778D01*
X28956Y1402080D01*
X827735Y2201113D01*
X831037Y2203297D01*
X834948Y2204110D01*
X6697980Y2204110D01*
X6701891Y2203297D01*
X6705193Y2201113D01*
X6707378Y2197811D01*
X6708140Y2193899D01*
X6704228Y296011D01*
X6703466Y292150D01*
X6701281Y288848D01*
X6697980Y286664D01*
X6694068Y285902D01*
X6430670Y285902D01*
X6424168Y285089D01*
X6418630Y283006D01*
X6413500Y279450D01*
X6410452Y276402D01*
X6407861Y272846D01*
X6405321Y267258D01*
X6404152Y259842D01*
X6404152Y35966D01*
X6403390Y32054D01*
X6401155Y28752D01*
X6397904Y26568D01*
X6393992Y25806D01*
X3892143Y25806D01*
X3888232Y26568D01*
X3884929Y28752D01*
X3882745Y32054D01*
X3881983Y35966D01*
X3881983Y259384D01*
X3881170Y265836D01*
X3879087Y271373D01*
X3875532Y276504D01*
X3872484Y279552D01*
X3868928Y282194D01*
X3863390Y284683D01*
X3855923Y285902D01*
X2370683Y285902D01*
X2364181Y285089D01*
X2358644Y283006D01*
X2353513Y279450D01*
X2350516Y276402D01*
X2347874Y272846D01*
X2345385Y267258D01*
X2344166Y259842D01*
X2344166Y35966D01*
X2343404Y32054D01*
X2341219Y28752D01*
X2337917Y26568D01*
X2334006Y25806D01*
G37*

%LPC*%
G36*
X3922826Y273100D02*
G01*
X4079138Y273100D01*
X4085488Y273812D01*
X4090924Y275691D01*
X4095851Y278790D01*
X4099915Y282905D01*
X4103014Y287782D01*
X4104944Y293268D01*
X4105656Y299567D01*
X4105656Y468426D01*
X4104944Y474726D01*
X4103014Y480212D01*
X4099915Y485089D01*
X4095851Y489204D01*
X4090924Y492302D01*
X4085488Y494182D01*
X4079138Y494893D01*
X3922826Y494893D01*
X3916476Y494182D01*
X3911041Y492302D01*
X3906113Y489204D01*
X3902049Y485089D01*
X3898950Y480212D01*
X3897071Y474726D01*
X3896360Y468426D01*
X3896360Y299567D01*
X3897071Y293268D01*
X3898950Y287782D01*
X3902049Y282905D01*
X3906113Y278790D01*
X3911041Y275691D01*
X3916476Y273812D01*
G37*
G36*
X4258564Y273151D02*
G01*
X4272686Y274523D01*
X4286554Y277672D01*
X4299864Y282600D01*
X4312462Y289153D01*
X4324146Y297281D01*
X4334662Y306882D01*
X4343857Y317652D01*
X4351629Y329590D01*
X4357776Y342392D01*
X4362246Y355854D01*
X4364990Y369824D01*
X4365853Y383997D01*
X4364990Y398170D01*
X4362246Y412140D01*
X4357776Y425602D01*
X4351629Y438404D01*
X4343857Y450342D01*
X4334662Y461162D01*
X4324146Y470712D01*
X4312462Y478840D01*
X4299864Y485393D01*
X4286554Y490321D01*
X4272686Y493471D01*
X4258564Y494842D01*
X4244340Y494385D01*
X4230319Y492099D01*
X4216704Y488086D01*
X4203700Y482295D01*
X4191558Y474929D01*
X4180433Y466090D01*
X4170578Y455879D01*
X4162044Y444500D01*
X4155084Y432104D01*
X4149750Y418947D01*
X4146143Y405180D01*
X4144314Y391109D01*
X4144314Y376885D01*
X4146143Y362813D01*
X4149750Y349046D01*
X4155084Y335889D01*
X4162044Y323494D01*
X4170578Y312115D01*
X4180433Y301904D01*
X4191558Y293065D01*
X4203700Y285699D01*
X4216704Y279958D01*
X4230319Y275894D01*
X4244340Y273608D01*
G37*
G36*
X5782564Y273151D02*
G01*
X5796686Y274523D01*
X5810554Y277672D01*
X5823864Y282600D01*
X5836462Y289153D01*
X5848146Y297281D01*
X5858662Y306882D01*
X5867857Y317652D01*
X5875629Y329590D01*
X5881776Y342392D01*
X5886246Y355854D01*
X5888990Y369824D01*
X5889853Y383997D01*
X5888990Y398170D01*
X5886246Y412140D01*
X5881776Y425602D01*
X5875629Y438404D01*
X5867857Y450342D01*
X5858662Y461162D01*
X5848146Y470712D01*
X5836462Y478840D01*
X5823864Y485393D01*
X5810554Y490321D01*
X5796686Y493471D01*
X5782564Y494842D01*
X5768340Y494385D01*
X5754319Y492099D01*
X5740704Y488086D01*
X5727700Y482295D01*
X5715558Y474929D01*
X5704433Y466090D01*
X5694578Y455879D01*
X5686044Y444500D01*
X5679084Y432104D01*
X5673750Y418947D01*
X5670143Y405180D01*
X5668314Y391109D01*
X5668314Y376885D01*
X5670143Y362813D01*
X5673750Y349046D01*
X5679084Y335889D01*
X5686044Y323494D01*
X5694578Y312115D01*
X5704433Y301904D01*
X5715558Y293065D01*
X5727700Y285699D01*
X5740704Y279958D01*
X5754319Y275894D01*
X5768340Y273608D01*
G37*
G36*
X4766564Y273151D02*
G01*
X4780686Y274523D01*
X4794554Y277672D01*
X4807864Y282600D01*
X4820462Y289153D01*
X4832146Y297281D01*
X4842662Y306882D01*
X4851857Y317652D01*
X4859629Y329590D01*
X4865776Y342392D01*
X4870246Y355854D01*
X4872990Y369824D01*
X4873853Y383997D01*
X4872990Y398170D01*
X4870246Y412140D01*
X4865776Y425602D01*
X4859629Y438404D01*
X4851857Y450342D01*
X4842662Y461162D01*
X4832146Y470712D01*
X4820462Y478840D01*
X4807864Y485393D01*
X4794554Y490321D01*
X4780686Y493471D01*
X4766564Y494842D01*
X4752340Y494385D01*
X4738319Y492099D01*
X4724704Y488086D01*
X4711700Y482295D01*
X4699558Y474929D01*
X4688433Y466090D01*
X4678578Y455879D01*
X4670044Y444500D01*
X4663084Y432104D01*
X4657750Y418947D01*
X4654143Y405180D01*
X4652314Y391109D01*
X4652314Y376885D01*
X4654143Y362813D01*
X4657750Y349046D01*
X4663084Y335889D01*
X4670044Y323494D01*
X4678578Y312115D01*
X4688433Y301904D01*
X4699558Y293065D01*
X4711700Y285699D01*
X4724704Y279958D01*
X4738319Y275894D01*
X4752340Y273608D01*
G37*
G36*
X5528564Y273151D02*
G01*
X5542686Y274523D01*
X5556554Y277672D01*
X5569864Y282600D01*
X5582462Y289153D01*
X5594146Y297281D01*
X5604662Y306882D01*
X5613857Y317652D01*
X5621629Y329590D01*
X5627776Y342392D01*
X5632246Y355854D01*
X5634990Y369824D01*
X5635853Y383997D01*
X5634990Y398170D01*
X5632246Y412140D01*
X5627776Y425602D01*
X5621629Y438404D01*
X5613857Y450342D01*
X5604662Y461162D01*
X5594146Y470712D01*
X5582462Y478840D01*
X5569864Y485393D01*
X5556554Y490321D01*
X5542686Y493471D01*
X5528564Y494842D01*
X5514340Y494385D01*
X5500319Y492099D01*
X5486704Y488086D01*
X5473700Y482295D01*
X5461558Y474929D01*
X5450433Y466090D01*
X5440578Y455879D01*
X5432044Y444500D01*
X5425084Y432104D01*
X5419750Y418947D01*
X5416143Y405180D01*
X5414314Y391109D01*
X5414314Y376885D01*
X5416143Y362813D01*
X5419750Y349046D01*
X5425084Y335889D01*
X5432044Y323494D01*
X5440578Y312115D01*
X5450433Y301904D01*
X5461558Y293065D01*
X5473700Y285699D01*
X5486704Y279958D01*
X5500319Y275894D01*
X5514340Y273608D01*
G37*
G36*
X5020564Y273151D02*
G01*
X5034686Y274523D01*
X5048554Y277672D01*
X5061864Y282600D01*
X5074462Y289153D01*
X5086146Y297281D01*
X5096662Y306882D01*
X5105857Y317652D01*
X5113629Y329590D01*
X5119776Y342392D01*
X5124246Y355854D01*
X5126990Y369824D01*
X5127853Y383997D01*
X5126990Y398170D01*
X5124246Y412140D01*
X5119776Y425602D01*
X5113629Y438404D01*
X5105857Y450342D01*
X5096662Y461162D01*
X5086146Y470712D01*
X5074462Y478840D01*
X5061864Y485393D01*
X5048554Y490321D01*
X5034686Y493471D01*
X5020564Y494842D01*
X5006340Y494385D01*
X4992319Y492099D01*
X4978704Y488086D01*
X4965700Y482295D01*
X4953558Y474929D01*
X4942433Y466090D01*
X4932578Y455879D01*
X4924044Y444500D01*
X4917084Y432104D01*
X4911750Y418947D01*
X4908143Y405180D01*
X4906314Y391109D01*
X4906314Y376885D01*
X4908143Y362813D01*
X4911750Y349046D01*
X4917084Y335889D01*
X4924044Y323494D01*
X4932578Y312115D01*
X4942433Y301904D01*
X4953558Y293065D01*
X4965700Y285699D01*
X4978704Y279958D01*
X4992319Y275894D01*
X5006340Y273608D01*
G37*
G36*
X6036564Y273151D02*
G01*
X6050686Y274523D01*
X6064554Y277672D01*
X6077864Y282600D01*
X6090462Y289153D01*
X6102146Y297281D01*
X6112662Y306882D01*
X6121857Y317652D01*
X6129629Y329590D01*
X6135776Y342392D01*
X6140246Y355854D01*
X6142990Y369824D01*
X6143853Y383997D01*
X6142990Y398170D01*
X6140246Y412140D01*
X6135776Y425602D01*
X6129629Y438404D01*
X6121857Y450342D01*
X6112662Y461162D01*
X6102146Y470712D01*
X6090462Y478840D01*
X6077864Y485393D01*
X6064554Y490321D01*
X6050686Y493471D01*
X6036564Y494842D01*
X6022340Y494385D01*
X6008319Y492099D01*
X5994704Y488086D01*
X5981700Y482295D01*
X5969558Y474929D01*
X5958433Y466090D01*
X5948578Y455879D01*
X5940044Y444500D01*
X5933084Y432104D01*
X5927750Y418947D01*
X5924143Y405180D01*
X5922314Y391109D01*
X5922314Y376885D01*
X5924143Y362813D01*
X5927750Y349046D01*
X5933084Y335889D01*
X5940044Y323494D01*
X5948578Y312115D01*
X5958433Y301904D01*
X5969558Y293065D01*
X5981700Y285699D01*
X5994704Y279958D01*
X6008319Y275894D01*
X6022340Y273608D01*
G37*
G36*
X5274564Y273151D02*
G01*
X5288686Y274523D01*
X5302554Y277672D01*
X5315864Y282600D01*
X5328462Y289153D01*
X5340146Y297281D01*
X5350662Y306882D01*
X5359857Y317652D01*
X5367629Y329590D01*
X5373776Y342392D01*
X5378246Y355854D01*
X5380990Y369824D01*
X5381853Y383997D01*
X5380990Y398170D01*
X5378246Y412140D01*
X5373776Y425602D01*
X5367629Y438404D01*
X5359857Y450342D01*
X5350662Y461162D01*
X5340146Y470712D01*
X5328462Y478840D01*
X5315864Y485393D01*
X5302554Y490321D01*
X5288686Y493471D01*
X5274564Y494842D01*
X5260340Y494385D01*
X5246319Y492099D01*
X5232704Y488086D01*
X5219700Y482295D01*
X5207558Y474929D01*
X5196433Y466090D01*
X5186578Y455879D01*
X5178044Y444500D01*
X5171084Y432104D01*
X5165750Y418947D01*
X5162143Y405180D01*
X5160314Y391109D01*
X5160314Y376885D01*
X5162143Y362813D01*
X5165750Y349046D01*
X5171084Y335889D01*
X5178044Y323494D01*
X5186578Y312115D01*
X5196433Y301904D01*
X5207558Y293065D01*
X5219700Y285699D01*
X5232704Y279958D01*
X5246319Y275894D01*
X5260340Y273608D01*
G37*
G36*
X370586Y283108D02*
G01*
X519430Y283108D01*
X525729Y283819D01*
X531215Y285699D01*
X536092Y288798D01*
X540207Y292862D01*
X543306Y297789D01*
X545185Y303225D01*
X545896Y309575D01*
X545896Y458419D01*
X545185Y464769D01*
X543306Y470204D01*
X540207Y475132D01*
X536092Y479196D01*
X531215Y482295D01*
X525729Y484174D01*
X519430Y484885D01*
X370586Y484885D01*
X364236Y484174D01*
X358800Y482295D01*
X353872Y479196D01*
X349808Y475132D01*
X346710Y470204D01*
X344779Y464769D01*
X344068Y458419D01*
X344068Y309575D01*
X344779Y303225D01*
X346710Y297789D01*
X349808Y292862D01*
X353872Y288798D01*
X358800Y285699D01*
X364236Y283819D01*
G37*
G36*
X949604Y283159D02*
G01*
X963117Y283616D01*
X976376Y285851D01*
X989279Y289864D01*
X1001471Y295503D01*
X1012850Y302768D01*
X1023112Y311505D01*
X1032154Y321462D01*
X1039774Y332587D01*
X1045870Y344627D01*
X1050290Y357327D01*
X1052982Y370535D01*
X1053896Y383997D01*
X1052982Y397459D01*
X1050290Y410667D01*
X1045870Y423367D01*
X1039774Y435406D01*
X1032154Y446532D01*
X1023112Y456539D01*
X1012850Y465226D01*
X1001471Y472490D01*
X989279Y478129D01*
X976376Y482142D01*
X963117Y484378D01*
X949604Y484835D01*
X936193Y483463D01*
X923086Y480364D01*
X910539Y475488D01*
X898702Y469036D01*
X887882Y461060D01*
X878179Y451662D01*
X869848Y441096D01*
X862939Y429514D01*
X857707Y417068D01*
X854151Y404114D01*
X852322Y390753D01*
X852322Y377240D01*
X854151Y363880D01*
X857707Y350926D01*
X862939Y338480D01*
X869848Y326898D01*
X878179Y316331D01*
X887882Y306933D01*
X898702Y298958D01*
X910539Y292506D01*
X923086Y287629D01*
X936193Y284530D01*
G37*
G36*
X1711604Y283159D02*
G01*
X1725117Y283616D01*
X1738375Y285851D01*
X1751279Y289864D01*
X1763471Y295503D01*
X1774850Y302768D01*
X1785112Y311505D01*
X1794154Y321462D01*
X1801774Y332587D01*
X1807870Y344627D01*
X1812289Y357327D01*
X1814982Y370535D01*
X1815896Y383997D01*
X1814982Y397459D01*
X1812289Y410667D01*
X1807870Y423367D01*
X1801774Y435406D01*
X1794154Y446532D01*
X1785112Y456539D01*
X1774850Y465226D01*
X1763471Y472490D01*
X1751279Y478129D01*
X1738375Y482142D01*
X1725117Y484378D01*
X1711604Y484835D01*
X1698193Y483463D01*
X1685086Y480364D01*
X1672539Y475488D01*
X1660702Y469036D01*
X1649882Y461060D01*
X1640179Y451662D01*
X1631848Y441096D01*
X1624939Y429514D01*
X1619707Y417068D01*
X1616151Y404114D01*
X1614322Y390753D01*
X1614322Y377240D01*
X1616151Y363880D01*
X1619707Y350926D01*
X1624939Y338480D01*
X1631848Y326898D01*
X1640179Y316331D01*
X1649882Y306933D01*
X1660702Y298958D01*
X1672539Y292506D01*
X1685086Y287629D01*
X1698193Y284530D01*
G37*
G36*
X1457604Y283159D02*
G01*
X1471117Y283616D01*
X1484376Y285851D01*
X1497279Y289864D01*
X1509471Y295503D01*
X1520850Y302768D01*
X1531112Y311505D01*
X1540154Y321462D01*
X1547774Y332587D01*
X1553870Y344627D01*
X1558290Y357327D01*
X1560982Y370535D01*
X1561896Y383997D01*
X1560982Y397459D01*
X1558290Y410667D01*
X1553870Y423367D01*
X1547774Y435406D01*
X1540154Y446532D01*
X1531112Y456539D01*
X1520850Y465226D01*
X1509471Y472490D01*
X1497279Y478129D01*
X1484376Y482142D01*
X1471117Y484378D01*
X1457604Y484835D01*
X1444193Y483463D01*
X1431086Y480364D01*
X1418539Y475488D01*
X1406702Y469036D01*
X1395882Y461060D01*
X1386179Y451662D01*
X1377848Y441096D01*
X1370939Y429514D01*
X1365707Y417068D01*
X1362151Y404114D01*
X1360322Y390753D01*
X1360322Y377240D01*
X1362151Y363880D01*
X1365707Y350926D01*
X1370939Y338480D01*
X1377848Y326898D01*
X1386179Y316331D01*
X1395882Y306933D01*
X1406702Y298958D01*
X1418539Y292506D01*
X1431086Y287629D01*
X1444193Y284530D01*
G37*
G36*
X695604Y283159D02*
G01*
X709117Y283616D01*
X722376Y285851D01*
X735279Y289864D01*
X747471Y295503D01*
X758850Y302768D01*
X769112Y311505D01*
X778154Y321462D01*
X785774Y332587D01*
X791870Y344627D01*
X796290Y357327D01*
X798982Y370535D01*
X799896Y383997D01*
X798982Y397459D01*
X796290Y410667D01*
X791870Y423367D01*
X785774Y435406D01*
X778154Y446532D01*
X769112Y456539D01*
X758850Y465226D01*
X747471Y472490D01*
X735279Y478129D01*
X722376Y482142D01*
X709117Y484378D01*
X695604Y484835D01*
X682193Y483463D01*
X669086Y480364D01*
X656539Y475488D01*
X644702Y469036D01*
X633882Y461060D01*
X624179Y451662D01*
X615848Y441096D01*
X608939Y429514D01*
X603707Y417068D01*
X600151Y404114D01*
X598322Y390753D01*
X598322Y377240D01*
X600151Y363880D01*
X603707Y350926D01*
X608939Y338480D01*
X615848Y326898D01*
X624179Y316331D01*
X633882Y306933D01*
X644702Y298958D01*
X656539Y292506D01*
X669086Y287629D01*
X682193Y284530D01*
G37*
G36*
X1203604Y283159D02*
G01*
X1217117Y283616D01*
X1230376Y285851D01*
X1243279Y289864D01*
X1255471Y295503D01*
X1266850Y302768D01*
X1277112Y311505D01*
X1286154Y321462D01*
X1293774Y332587D01*
X1299870Y344627D01*
X1304290Y357327D01*
X1306982Y370535D01*
X1307896Y383997D01*
X1306982Y397459D01*
X1304290Y410667D01*
X1299870Y423367D01*
X1293774Y435406D01*
X1286154Y446532D01*
X1277112Y456539D01*
X1266850Y465226D01*
X1255471Y472490D01*
X1243279Y478129D01*
X1230376Y482142D01*
X1217117Y484378D01*
X1203604Y484835D01*
X1190193Y483463D01*
X1177086Y480364D01*
X1164539Y475488D01*
X1152702Y469036D01*
X1141882Y461060D01*
X1132179Y451662D01*
X1123848Y441096D01*
X1116939Y429514D01*
X1111707Y417068D01*
X1108151Y404114D01*
X1106322Y390753D01*
X1106322Y377240D01*
X1108151Y363880D01*
X1111707Y350926D01*
X1116939Y338480D01*
X1123848Y326898D01*
X1132179Y316331D01*
X1141882Y306933D01*
X1152702Y298958D01*
X1164539Y292506D01*
X1177086Y287629D01*
X1190193Y284530D01*
G37*
G36*
X1965604Y283159D02*
G01*
X1979117Y283616D01*
X1992375Y285851D01*
X2005279Y289864D01*
X2017471Y295503D01*
X2028850Y302768D01*
X2039112Y311505D01*
X2048154Y321462D01*
X2055774Y332587D01*
X2061870Y344627D01*
X2066289Y357327D01*
X2068982Y370535D01*
X2069896Y383997D01*
X2068982Y397459D01*
X2066289Y410667D01*
X2061870Y423367D01*
X2055774Y435406D01*
X2048154Y446532D01*
X2039112Y456539D01*
X2028850Y465226D01*
X2017471Y472490D01*
X2005279Y478129D01*
X1992375Y482142D01*
X1979117Y484378D01*
X1965604Y484835D01*
X1952193Y483463D01*
X1939086Y480364D01*
X1926539Y475488D01*
X1914702Y469036D01*
X1903882Y461060D01*
X1894179Y451662D01*
X1885848Y441096D01*
X1878939Y429514D01*
X1873707Y417068D01*
X1870151Y404114D01*
X1868322Y390753D01*
X1868322Y377240D01*
X1870151Y363880D01*
X1873707Y350926D01*
X1878939Y338480D01*
X1885848Y326898D01*
X1894179Y316331D01*
X1903882Y306933D01*
X1914702Y298958D01*
X1926539Y292506D01*
X1939086Y287629D01*
X1952193Y284530D01*
G37*
G36*
X4460138Y284632D02*
G01*
X4460138Y335127D01*
X4409490Y335127D01*
X4416044Y323494D01*
X4424578Y312115D01*
X4434433Y301904D01*
X4445558Y293065D01*
X4457700Y285699D01*
G37*
G36*
X6238138Y284632D02*
G01*
X6238138Y335127D01*
X6187490Y335127D01*
X6194044Y323494D01*
X6202578Y312115D01*
X6212433Y301904D01*
X6223558Y293065D01*
X6235700Y285699D01*
G37*
G36*
X4557826Y284683D02*
G01*
X4566462Y289153D01*
X4578146Y297281D01*
X4588662Y306882D01*
X4597857Y317652D01*
X4605629Y329590D01*
X4608271Y335127D01*
X4557826Y335127D01*
G37*
G36*
X6335826Y284683D02*
G01*
X6344462Y289153D01*
X6356146Y297281D01*
X6366662Y306882D01*
X6375857Y317652D01*
X6383629Y329590D01*
X6386271Y335127D01*
X6335826Y335127D01*
G37*
G36*
X2179167Y293268D02*
G01*
X2179167Y340156D01*
X2132279Y340156D01*
X2132939Y338480D01*
X2139848Y326898D01*
X2148179Y316331D01*
X2157882Y306933D01*
X2168702Y298958D01*
G37*
G36*
X2266848Y293370D02*
G01*
X2271471Y295503D01*
X2282850Y302768D01*
X2293112Y311505D01*
X2302154Y321462D01*
X2309774Y332587D01*
X2313635Y340156D01*
X2266848Y340156D01*
G37*
G36*
X2266848Y427837D02*
G01*
X2313635Y427837D01*
X2309774Y435406D01*
X2302154Y446532D01*
X2293112Y456539D01*
X2282850Y465226D01*
X2271471Y472490D01*
X2266848Y474624D01*
G37*
G36*
X2132279Y427837D02*
G01*
X2179167Y427837D01*
X2179167Y474776D01*
X2168702Y469036D01*
X2157882Y461060D01*
X2148179Y451662D01*
X2139848Y441096D01*
X2132939Y429514D01*
G37*
G36*
X4557826Y432866D02*
G01*
X4608271Y432866D01*
X4605629Y438404D01*
X4597857Y450342D01*
X4588662Y461162D01*
X4578146Y470712D01*
X4566462Y478840D01*
X4557826Y483311D01*
G37*
G36*
X6335826Y432866D02*
G01*
X6386271Y432866D01*
X6383629Y438404D01*
X6375857Y450342D01*
X6366662Y461162D01*
X6356146Y470712D01*
X6344462Y478840D01*
X6335826Y483311D01*
G37*
G36*
X4409490Y432866D02*
G01*
X4460138Y432866D01*
X4460138Y483412D01*
X4457700Y482295D01*
X4445558Y474929D01*
X4434433Y466090D01*
X4424578Y455879D01*
X4416044Y444500D01*
G37*
G36*
X6187490Y432866D02*
G01*
X6238138Y432866D01*
X6238138Y483412D01*
X6235700Y482295D01*
X6223558Y474929D01*
X6212433Y466090D01*
X6202578Y455879D01*
X6194044Y444500D01*
G37*
G36*
X972413Y673150D02*
G01*
X981964Y674420D01*
X991209Y677214D01*
X999794Y681583D01*
X1007567Y687324D01*
X1014272Y694283D01*
X1019657Y702259D01*
X1023619Y711047D01*
X1026058Y720394D01*
X1026871Y729996D01*
X1026058Y739597D01*
X1023619Y748944D01*
X1019657Y757732D01*
X1014272Y765708D01*
X1007567Y772668D01*
X999794Y778408D01*
X991209Y782777D01*
X981964Y785571D01*
X972413Y786841D01*
X962761Y786384D01*
X953363Y784352D01*
X944371Y780796D01*
X936193Y775716D01*
X928928Y769366D01*
X922883Y761847D01*
X918159Y753414D01*
X914958Y744321D01*
X913333Y734822D01*
X913333Y725170D01*
X914958Y715670D01*
X918159Y706577D01*
X922883Y698144D01*
X928928Y690626D01*
X936193Y684276D01*
X944371Y679196D01*
X953363Y675640D01*
X962761Y673608D01*
G37*
G36*
X2592425Y723188D02*
G01*
X2601976Y724408D01*
X2611170Y727252D01*
X2619806Y731570D01*
X2627579Y737311D01*
X2634234Y744270D01*
X2639618Y752297D01*
X2643632Y761085D01*
X2646019Y770382D01*
X2646883Y779983D01*
X2646019Y789635D01*
X2643632Y798931D01*
X2639618Y807720D01*
X2634234Y815746D01*
X2627579Y822706D01*
X2619806Y828446D01*
X2611170Y832764D01*
X2601976Y835609D01*
X2592425Y836828D01*
X2582773Y836421D01*
X2573324Y834390D01*
X2564384Y830783D01*
X2556154Y825753D01*
X2548940Y819353D01*
X2542844Y811834D01*
X2538171Y803452D01*
X2534970Y794359D01*
X2533345Y784809D01*
X2533345Y775208D01*
X2534970Y765657D01*
X2538171Y756564D01*
X2542844Y748182D01*
X2548940Y740664D01*
X2556154Y734263D01*
X2564384Y729234D01*
X2573324Y725627D01*
X2582773Y723595D01*
G37*
G36*
X692404Y813155D02*
G01*
X701954Y814425D01*
X711200Y817219D01*
X719785Y821588D01*
X727557Y827328D01*
X734263Y834288D01*
X739648Y842264D01*
X743610Y851052D01*
X746048Y860399D01*
X746861Y870000D01*
X746048Y879602D01*
X743610Y888949D01*
X739648Y897737D01*
X734263Y905713D01*
X727557Y912672D01*
X719785Y918413D01*
X711200Y922782D01*
X701954Y925576D01*
X692404Y926846D01*
X682752Y926388D01*
X673354Y924356D01*
X664362Y920800D01*
X656183Y915720D01*
X648919Y909370D01*
X642874Y901852D01*
X638149Y893419D01*
X634949Y884326D01*
X633323Y874826D01*
X633323Y865174D01*
X634949Y855675D01*
X638149Y846582D01*
X642874Y838149D01*
X648919Y830630D01*
X656183Y824280D01*
X664362Y819200D01*
X673354Y815644D01*
X682752Y813612D01*
G37*
G36*
X3872433Y1083157D02*
G01*
X3881983Y1084427D01*
X3891178Y1087221D01*
X3899814Y1091590D01*
X3907586Y1097330D01*
X3914241Y1104290D01*
X3919626Y1112266D01*
X3923639Y1121054D01*
X3926027Y1130401D01*
X3926890Y1140002D01*
X3926027Y1149604D01*
X3923639Y1158951D01*
X3919626Y1167739D01*
X3914241Y1175715D01*
X3907586Y1182674D01*
X3899814Y1188415D01*
X3891178Y1192784D01*
X3881983Y1195578D01*
X3872433Y1196848D01*
X3862781Y1196390D01*
X3853332Y1194358D01*
X3844391Y1190802D01*
X3836162Y1185722D01*
X3828948Y1179372D01*
X3822852Y1171854D01*
X3818178Y1163421D01*
X3814978Y1154328D01*
X3813352Y1144828D01*
X3813352Y1135176D01*
X3814978Y1125677D01*
X3818178Y1116584D01*
X3822852Y1108151D01*
X3828948Y1100632D01*
X3836162Y1094282D01*
X3844391Y1089202D01*
X3853332Y1085646D01*
X3862781Y1083614D01*
G37*
G36*
X3862425Y1223162D02*
G01*
X3871976Y1224432D01*
X3881170Y1227226D01*
X3889806Y1231595D01*
X3897579Y1237335D01*
X3904234Y1244295D01*
X3909618Y1252270D01*
X3913632Y1261059D01*
X3916019Y1270406D01*
X3916883Y1280007D01*
X3916019Y1289608D01*
X3913632Y1298956D01*
X3909618Y1307744D01*
X3904234Y1315720D01*
X3897579Y1322679D01*
X3889806Y1328420D01*
X3881170Y1332788D01*
X3871976Y1335582D01*
X3862425Y1336852D01*
X3852773Y1336395D01*
X3843324Y1334363D01*
X3834384Y1330807D01*
X3826154Y1325727D01*
X3818940Y1319377D01*
X3812844Y1311859D01*
X3808171Y1303426D01*
X3804970Y1294333D01*
X3803345Y1284833D01*
X3803345Y1275181D01*
X3804970Y1265682D01*
X3808171Y1256588D01*
X3812844Y1248156D01*
X3818940Y1240637D01*
X3826154Y1234287D01*
X3834384Y1229207D01*
X3843324Y1225651D01*
X3852773Y1223619D01*
G37*
G36*
X1232408Y1273200D02*
G01*
X1241958Y1274419D01*
X1251204Y1277213D01*
X1259840Y1281582D01*
X1267561Y1287322D01*
X1274267Y1294282D01*
X1279652Y1302258D01*
X1283614Y1311046D01*
X1286052Y1320393D01*
X1286865Y1329994D01*
X1286052Y1339596D01*
X1283614Y1348943D01*
X1279652Y1357731D01*
X1274267Y1365707D01*
X1267561Y1372666D01*
X1259840Y1378407D01*
X1251204Y1382776D01*
X1241958Y1385570D01*
X1232408Y1386840D01*
X1222756Y1386433D01*
X1213358Y1384401D01*
X1204417Y1380794D01*
X1196187Y1375714D01*
X1188923Y1369364D01*
X1182878Y1361846D01*
X1178153Y1353413D01*
X1174953Y1344320D01*
X1173327Y1334820D01*
X1173327Y1325168D01*
X1174953Y1315669D01*
X1178153Y1306576D01*
X1182878Y1298143D01*
X1188923Y1290624D01*
X1196187Y1284274D01*
X1204417Y1279194D01*
X1213358Y1275638D01*
X1222756Y1273606D01*
G37*
G36*
X6533134Y1339189D02*
G01*
X6545783Y1340510D01*
X6558076Y1343558D01*
X6569811Y1348282D01*
X6580784Y1354632D01*
X6590792Y1362456D01*
X6599631Y1371600D01*
X6607048Y1381810D01*
X6612991Y1393037D01*
X6617360Y1404924D01*
X6620002Y1417370D01*
X6620865Y1429969D01*
X6620002Y1442618D01*
X6617360Y1455064D01*
X6612991Y1466951D01*
X6607048Y1478178D01*
X6599631Y1488389D01*
X6590792Y1497533D01*
X6580784Y1505356D01*
X6569811Y1511655D01*
X6558076Y1516430D01*
X6545783Y1519478D01*
X6533134Y1520799D01*
X6520484Y1520393D01*
X6507988Y1518158D01*
X6495948Y1514246D01*
X6484518Y1508709D01*
X6474053Y1501597D01*
X6464604Y1493113D01*
X6456476Y1483410D01*
X6449720Y1472641D01*
X6444589Y1461058D01*
X6441084Y1448866D01*
X6439306Y1436319D01*
X6439306Y1423670D01*
X6441084Y1411122D01*
X6444589Y1398930D01*
X6449720Y1387348D01*
X6456476Y1376578D01*
X6464604Y1366875D01*
X6474053Y1358392D01*
X6484518Y1351280D01*
X6495948Y1345742D01*
X6507988Y1341831D01*
X6520484Y1339596D01*
G37*
G36*
X5933135Y1339189D02*
G01*
X5945784Y1340510D01*
X5958078Y1343558D01*
X5969812Y1348282D01*
X5980785Y1354632D01*
X5990793Y1362456D01*
X5999632Y1371600D01*
X6007049Y1381810D01*
X6012992Y1393037D01*
X6017361Y1404924D01*
X6020003Y1417370D01*
X6020866Y1429969D01*
X6020003Y1442618D01*
X6017361Y1455064D01*
X6012992Y1466951D01*
X6007049Y1478178D01*
X5999632Y1488389D01*
X5990793Y1497533D01*
X5980785Y1505356D01*
X5969812Y1511655D01*
X5958078Y1516430D01*
X5945784Y1519478D01*
X5933135Y1520799D01*
X5920486Y1520393D01*
X5907989Y1518158D01*
X5895949Y1514246D01*
X5884519Y1508709D01*
X5874054Y1501597D01*
X5864606Y1493113D01*
X5856478Y1483410D01*
X5849721Y1472641D01*
X5844590Y1461058D01*
X5841085Y1448866D01*
X5839307Y1436319D01*
X5839307Y1423670D01*
X5841085Y1411122D01*
X5844590Y1398930D01*
X5849721Y1387348D01*
X5856478Y1376578D01*
X5864606Y1366875D01*
X5874054Y1358392D01*
X5884519Y1351280D01*
X5895949Y1345742D01*
X5907989Y1341831D01*
X5920486Y1339596D01*
G37*
G36*
X4602429Y1373174D02*
G01*
X4611979Y1374394D01*
X4621174Y1377238D01*
X4629810Y1381556D01*
X4637582Y1387297D01*
X4644237Y1394256D01*
X4649622Y1402283D01*
X4653635Y1411071D01*
X4656023Y1420368D01*
X4656886Y1429969D01*
X4656023Y1439621D01*
X4653635Y1448917D01*
X4649622Y1457706D01*
X4644237Y1465732D01*
X4637582Y1472692D01*
X4629810Y1478432D01*
X4621174Y1482750D01*
X4611979Y1485595D01*
X4602429Y1486814D01*
X4592777Y1486408D01*
X4583328Y1484376D01*
X4574387Y1480769D01*
X4566158Y1475740D01*
X4558944Y1469339D01*
X4552848Y1461820D01*
X4548174Y1453438D01*
X4544974Y1444345D01*
X4543348Y1434795D01*
X4543348Y1425194D01*
X4544974Y1415643D01*
X4548174Y1406550D01*
X4552848Y1398168D01*
X4558944Y1390650D01*
X4566158Y1384249D01*
X4574387Y1379220D01*
X4583328Y1375613D01*
X4592777Y1373581D01*
G37*
G36*
X3172409Y1373174D02*
G01*
X3181959Y1374394D01*
X3191205Y1377238D01*
X3199790Y1381556D01*
X3207562Y1387297D01*
X3214268Y1394256D01*
X3219653Y1402283D01*
X3223615Y1411071D01*
X3226054Y1420368D01*
X3226866Y1429969D01*
X3226054Y1439621D01*
X3223615Y1448917D01*
X3219653Y1457706D01*
X3214268Y1465732D01*
X3207562Y1472692D01*
X3199790Y1478432D01*
X3191205Y1482750D01*
X3181959Y1485595D01*
X3172409Y1486814D01*
X3162757Y1486408D01*
X3153359Y1484376D01*
X3144367Y1480769D01*
X3136188Y1475740D01*
X3128924Y1469339D01*
X3122879Y1461820D01*
X3118154Y1453438D01*
X3114954Y1444345D01*
X3113328Y1434795D01*
X3113328Y1425194D01*
X3114954Y1415643D01*
X3118154Y1406550D01*
X3122879Y1398168D01*
X3128924Y1390650D01*
X3136188Y1384249D01*
X3144367Y1379220D01*
X3153359Y1375613D01*
X3162757Y1373581D01*
G37*
G36*
X1350416Y1968195D02*
G01*
X1359966Y1969414D01*
X1369212Y1972208D01*
X1377797Y1976577D01*
X1385570Y1982317D01*
X1392224Y1989277D01*
X1397660Y1997252D01*
X1401622Y2006041D01*
X1404061Y2015388D01*
X1404874Y2024989D01*
X1404061Y2034590D01*
X1401622Y2043938D01*
X1397660Y2052726D01*
X1392224Y2060702D01*
X1385570Y2067712D01*
X1377797Y2073402D01*
X1369212Y2077770D01*
X1359966Y2080615D01*
X1350416Y2081834D01*
X1340764Y2081428D01*
X1331366Y2079396D01*
X1322374Y2075789D01*
X1314196Y2070709D01*
X1306931Y2064359D01*
X1300886Y2056841D01*
X1296162Y2048408D01*
X1292961Y2039315D01*
X1291336Y2029815D01*
X1291336Y2020163D01*
X1292961Y2010664D01*
X1296162Y2001570D01*
X1300886Y1993138D01*
X1306931Y1985670D01*
X1314196Y1979269D01*
X1322374Y1974189D01*
X1331366Y1970633D01*
X1340764Y1968601D01*
G37*

%LPD*%
D10*
G01*
X445007Y383997D03*
D11*
G01*
X699007Y383997D03*
G01*
X953007Y383997D03*
G01*
X1207007Y383997D03*
G01*
X1461007Y383997D03*
G01*
X1715007Y383997D03*
G01*
X1969008Y383997D03*
G01*
X2223008Y383997D03*
D12*
G01*
X6286982Y383997D03*
G01*
X6032982Y383997D03*
G01*
X5778982Y383997D03*
G01*
X5524982Y383997D03*
G01*
X5270982Y383997D03*
G01*
X5016982Y383997D03*
G01*
X4762982Y383997D03*
G01*
X4508982Y383997D03*
G01*
X4254982Y383997D03*
D13*
G01*
X4000982Y383997D03*
D14*
G01*
X1754987Y1234998D03*
G01*
X1224991Y1189989D03*
G01*
X3859987Y1280007D03*
G01*
X3869994Y1140002D03*
G01*
X3458184Y1305991D03*
G01*
X3558184Y1305991D03*
G01*
X3558184Y1405991D03*
G01*
X3458184Y1405991D03*
G01*
X210007Y729995D03*
G01*
X970000Y729995D03*
G01*
X3169996Y1429994D03*
G01*
X689990Y870000D03*
G01*
X1350010Y1884984D03*
G01*
X1880006Y1929993D03*
G01*
X2399995Y1729994D03*
G01*
X2580004Y1929993D03*
G01*
X3159988Y1819986D03*
G01*
X2318994Y1888007D03*
G01*
X3289985Y1089990D03*
G01*
X3069996Y940003D03*
G01*
X2699994Y1189989D03*
G01*
X2419984Y1129995D03*
G01*
X2589987Y780008D03*
G01*
X3899992Y1729994D03*
G01*
X4599990Y1219987D03*
G01*
X4109999Y1289989D03*
G01*
X4599990Y1429994D03*
G01*
X6559981Y2029993D03*
G01*
X6479997Y2029993D03*
G01*
X2245004Y1189989D03*
G01*
X1347998Y2024997D03*
G01*
X1229997Y1329997D03*
M02*
