G04 Layer: InnerLayer1*
G04 EasyEDA v6.5.42, 2024-04-19 21:15:47*
G04 b74b0dd8b7a74548b8b14c9367106a0f,9fa9616398974da3a60ce9969dc7753a,10*
G04 Gerber Generator version 0.2*
G04 Scale: 100 percent, Rotated: No, Reflected: No *
G04 Dimensions in millimeters *
G04 leading zeros omitted , absolute positions ,4 integer and 5 decimal *
%FSLAX45Y45*%
%MOMM*%

%ADD10R,1.5000X1.5000*%
%ADD11C,1.5000*%
%ADD12C,1.7000*%
%ADD13R,1.5748X1.7000*%
%ADD14C,0.6200*%
%ADD15C,0.0125*%

%LPD*%
G36*
X336143Y25806D02*
G01*
X332232Y26568D01*
X328930Y28752D01*
X326745Y32054D01*
X325983Y35966D01*
X325983Y259384D01*
X325170Y265836D01*
X323088Y271373D01*
X319532Y276504D01*
X316484Y279552D01*
X312928Y282194D01*
X307340Y284683D01*
X299923Y285902D01*
X36169Y285902D01*
X32258Y286664D01*
X28956Y288848D01*
X26771Y292150D01*
X26009Y296062D01*
X26009Y1394917D01*
X26771Y1398778D01*
X28956Y1402080D01*
X827735Y2201113D01*
X831037Y2203297D01*
X834948Y2204110D01*
X6697980Y2204110D01*
X6701891Y2203297D01*
X6705193Y2201113D01*
X6707378Y2197811D01*
X6708140Y2193899D01*
X6704228Y296011D01*
X6703466Y292150D01*
X6701281Y288848D01*
X6697980Y286664D01*
X6694068Y285902D01*
X6430670Y285902D01*
X6424168Y285089D01*
X6418630Y283006D01*
X6413500Y279450D01*
X6410452Y276402D01*
X6407861Y272846D01*
X6405321Y267258D01*
X6404152Y259842D01*
X6404152Y35966D01*
X6403390Y32054D01*
X6401155Y28752D01*
X6397904Y26568D01*
X6393992Y25806D01*
X3892143Y25806D01*
X3888232Y26568D01*
X3884929Y28752D01*
X3882745Y32054D01*
X3881983Y35966D01*
X3881983Y259384D01*
X3881170Y265836D01*
X3879087Y271373D01*
X3875532Y276504D01*
X3872484Y279552D01*
X3868928Y282194D01*
X3863390Y284683D01*
X3855923Y285902D01*
X2370683Y285902D01*
X2364181Y285089D01*
X2358644Y283006D01*
X2353513Y279450D01*
X2350516Y276402D01*
X2347874Y272846D01*
X2345385Y267258D01*
X2344166Y259842D01*
X2344166Y35966D01*
X2343404Y32054D01*
X2341219Y28752D01*
X2337917Y26568D01*
X2334006Y25806D01*
G37*

%LPC*%
G36*
X3922826Y273100D02*
G01*
X3955287Y273100D01*
X3955287Y335127D01*
X3896360Y335127D01*
X3896360Y299567D01*
X3897071Y293268D01*
X3898950Y287782D01*
X3902049Y282905D01*
X3906113Y278790D01*
X3911041Y275691D01*
X3916476Y273812D01*
G37*
G36*
X4046728Y273100D02*
G01*
X4079138Y273100D01*
X4085488Y273812D01*
X4090924Y275691D01*
X4095851Y278790D01*
X4099915Y282905D01*
X4103014Y287782D01*
X4104944Y293268D01*
X4105656Y299567D01*
X4105656Y335127D01*
X4046728Y335127D01*
G37*
G36*
X4258564Y273151D02*
G01*
X4272686Y274523D01*
X4286554Y277672D01*
X4299864Y282600D01*
X4312462Y289153D01*
X4324146Y297281D01*
X4334662Y306882D01*
X4343857Y317652D01*
X4351629Y329590D01*
X4357776Y342392D01*
X4362246Y355854D01*
X4364990Y369824D01*
X4365853Y383997D01*
X4364990Y398170D01*
X4362246Y412140D01*
X4357776Y425602D01*
X4351629Y438404D01*
X4343857Y450342D01*
X4334662Y461162D01*
X4324146Y470712D01*
X4312462Y478840D01*
X4299864Y485393D01*
X4286554Y490321D01*
X4272686Y493471D01*
X4258564Y494842D01*
X4244340Y494385D01*
X4230319Y492099D01*
X4216704Y488086D01*
X4203700Y482295D01*
X4191558Y474929D01*
X4180433Y466090D01*
X4170578Y455879D01*
X4162044Y444500D01*
X4155084Y432104D01*
X4149750Y418947D01*
X4146143Y405180D01*
X4144314Y391109D01*
X4144314Y376885D01*
X4146143Y362813D01*
X4149750Y349046D01*
X4155084Y335889D01*
X4162044Y323494D01*
X4170578Y312115D01*
X4180433Y301904D01*
X4191558Y293065D01*
X4203700Y285699D01*
X4216704Y279958D01*
X4230319Y275894D01*
X4244340Y273608D01*
G37*
G36*
X6036564Y273151D02*
G01*
X6050686Y274523D01*
X6064554Y277672D01*
X6077864Y282600D01*
X6090462Y289153D01*
X6102146Y297281D01*
X6112662Y306882D01*
X6121857Y317652D01*
X6129629Y329590D01*
X6135776Y342392D01*
X6140246Y355854D01*
X6142990Y369824D01*
X6143853Y383997D01*
X6142990Y398170D01*
X6140246Y412140D01*
X6135776Y425602D01*
X6129629Y438404D01*
X6121857Y450342D01*
X6112662Y461162D01*
X6102146Y470712D01*
X6090462Y478840D01*
X6077864Y485393D01*
X6064554Y490321D01*
X6050686Y493471D01*
X6036564Y494842D01*
X6022340Y494385D01*
X6008319Y492099D01*
X5994704Y488086D01*
X5981700Y482295D01*
X5969558Y474929D01*
X5958433Y466090D01*
X5948578Y455879D01*
X5940044Y444500D01*
X5933084Y432104D01*
X5927750Y418947D01*
X5924143Y405180D01*
X5922314Y391109D01*
X5922314Y376885D01*
X5924143Y362813D01*
X5927750Y349046D01*
X5933084Y335889D01*
X5940044Y323494D01*
X5948578Y312115D01*
X5958433Y301904D01*
X5969558Y293065D01*
X5981700Y285699D01*
X5994704Y279958D01*
X6008319Y275894D01*
X6022340Y273608D01*
G37*
G36*
X4512564Y273151D02*
G01*
X4526686Y274523D01*
X4540554Y277672D01*
X4553864Y282600D01*
X4566462Y289153D01*
X4578146Y297281D01*
X4588662Y306882D01*
X4597857Y317652D01*
X4605629Y329590D01*
X4611776Y342392D01*
X4616246Y355854D01*
X4618990Y369824D01*
X4619853Y383997D01*
X4618990Y398170D01*
X4616246Y412140D01*
X4611776Y425602D01*
X4605629Y438404D01*
X4597857Y450342D01*
X4588662Y461162D01*
X4578146Y470712D01*
X4566462Y478840D01*
X4553864Y485393D01*
X4540554Y490321D01*
X4526686Y493471D01*
X4512564Y494842D01*
X4498340Y494385D01*
X4484319Y492099D01*
X4470704Y488086D01*
X4457700Y482295D01*
X4445558Y474929D01*
X4434433Y466090D01*
X4424578Y455879D01*
X4416044Y444500D01*
X4409084Y432104D01*
X4403750Y418947D01*
X4400143Y405180D01*
X4398314Y391109D01*
X4398314Y376885D01*
X4400143Y362813D01*
X4403750Y349046D01*
X4409084Y335889D01*
X4416044Y323494D01*
X4424578Y312115D01*
X4434433Y301904D01*
X4445558Y293065D01*
X4457700Y285699D01*
X4470704Y279958D01*
X4484319Y275894D01*
X4498340Y273608D01*
G37*
G36*
X5782564Y273151D02*
G01*
X5796686Y274523D01*
X5810554Y277672D01*
X5823864Y282600D01*
X5836462Y289153D01*
X5848146Y297281D01*
X5858662Y306882D01*
X5867857Y317652D01*
X5875629Y329590D01*
X5881776Y342392D01*
X5886246Y355854D01*
X5888990Y369824D01*
X5889853Y383997D01*
X5888990Y398170D01*
X5886246Y412140D01*
X5881776Y425602D01*
X5875629Y438404D01*
X5867857Y450342D01*
X5858662Y461162D01*
X5848146Y470712D01*
X5836462Y478840D01*
X5823864Y485393D01*
X5810554Y490321D01*
X5796686Y493471D01*
X5782564Y494842D01*
X5768340Y494385D01*
X5754319Y492099D01*
X5740704Y488086D01*
X5727700Y482295D01*
X5715558Y474929D01*
X5704433Y466090D01*
X5694578Y455879D01*
X5686044Y444500D01*
X5679084Y432104D01*
X5673750Y418947D01*
X5670143Y405180D01*
X5668314Y391109D01*
X5668314Y376885D01*
X5670143Y362813D01*
X5673750Y349046D01*
X5679084Y335889D01*
X5686044Y323494D01*
X5694578Y312115D01*
X5704433Y301904D01*
X5715558Y293065D01*
X5727700Y285699D01*
X5740704Y279958D01*
X5754319Y275894D01*
X5768340Y273608D01*
G37*
G36*
X4766564Y273151D02*
G01*
X4780686Y274523D01*
X4794554Y277672D01*
X4807864Y282600D01*
X4820462Y289153D01*
X4832146Y297281D01*
X4842662Y306882D01*
X4851857Y317652D01*
X4859629Y329590D01*
X4865776Y342392D01*
X4870246Y355854D01*
X4872990Y369824D01*
X4873853Y383997D01*
X4872990Y398170D01*
X4870246Y412140D01*
X4865776Y425602D01*
X4859629Y438404D01*
X4851857Y450342D01*
X4842662Y461162D01*
X4832146Y470712D01*
X4820462Y478840D01*
X4807864Y485393D01*
X4794554Y490321D01*
X4780686Y493471D01*
X4766564Y494842D01*
X4752340Y494385D01*
X4738319Y492099D01*
X4724704Y488086D01*
X4711700Y482295D01*
X4699558Y474929D01*
X4688433Y466090D01*
X4678578Y455879D01*
X4670044Y444500D01*
X4663084Y432104D01*
X4657750Y418947D01*
X4654143Y405180D01*
X4652314Y391109D01*
X4652314Y376885D01*
X4654143Y362813D01*
X4657750Y349046D01*
X4663084Y335889D01*
X4670044Y323494D01*
X4678578Y312115D01*
X4688433Y301904D01*
X4699558Y293065D01*
X4711700Y285699D01*
X4724704Y279958D01*
X4738319Y275894D01*
X4752340Y273608D01*
G37*
G36*
X5528564Y273151D02*
G01*
X5542686Y274523D01*
X5556554Y277672D01*
X5569864Y282600D01*
X5582462Y289153D01*
X5594146Y297281D01*
X5604662Y306882D01*
X5613857Y317652D01*
X5621629Y329590D01*
X5627776Y342392D01*
X5632246Y355854D01*
X5634990Y369824D01*
X5635853Y383997D01*
X5634990Y398170D01*
X5632246Y412140D01*
X5627776Y425602D01*
X5621629Y438404D01*
X5613857Y450342D01*
X5604662Y461162D01*
X5594146Y470712D01*
X5582462Y478840D01*
X5569864Y485393D01*
X5556554Y490321D01*
X5542686Y493471D01*
X5528564Y494842D01*
X5514340Y494385D01*
X5500319Y492099D01*
X5486704Y488086D01*
X5473700Y482295D01*
X5461558Y474929D01*
X5450433Y466090D01*
X5440578Y455879D01*
X5432044Y444500D01*
X5425084Y432104D01*
X5419750Y418947D01*
X5416143Y405180D01*
X5414314Y391109D01*
X5414314Y376885D01*
X5416143Y362813D01*
X5419750Y349046D01*
X5425084Y335889D01*
X5432044Y323494D01*
X5440578Y312115D01*
X5450433Y301904D01*
X5461558Y293065D01*
X5473700Y285699D01*
X5486704Y279958D01*
X5500319Y275894D01*
X5514340Y273608D01*
G37*
G36*
X6290564Y273151D02*
G01*
X6304686Y274523D01*
X6318554Y277672D01*
X6331864Y282600D01*
X6344462Y289153D01*
X6356146Y297281D01*
X6366662Y306882D01*
X6375857Y317652D01*
X6383629Y329590D01*
X6389776Y342392D01*
X6394246Y355854D01*
X6396990Y369824D01*
X6397853Y383997D01*
X6396990Y398170D01*
X6394246Y412140D01*
X6389776Y425602D01*
X6383629Y438404D01*
X6375857Y450342D01*
X6366662Y461162D01*
X6356146Y470712D01*
X6344462Y478840D01*
X6331864Y485393D01*
X6318554Y490321D01*
X6304686Y493471D01*
X6290564Y494842D01*
X6276340Y494385D01*
X6262319Y492099D01*
X6248704Y488086D01*
X6235700Y482295D01*
X6223558Y474929D01*
X6212433Y466090D01*
X6202578Y455879D01*
X6194044Y444500D01*
X6187084Y432104D01*
X6181750Y418947D01*
X6178143Y405180D01*
X6176314Y391109D01*
X6176314Y376885D01*
X6178143Y362813D01*
X6181750Y349046D01*
X6187084Y335889D01*
X6194044Y323494D01*
X6202578Y312115D01*
X6212433Y301904D01*
X6223558Y293065D01*
X6235700Y285699D01*
X6248704Y279958D01*
X6262319Y275894D01*
X6276340Y273608D01*
G37*
G36*
X5020564Y273151D02*
G01*
X5034686Y274523D01*
X5048554Y277672D01*
X5061864Y282600D01*
X5074462Y289153D01*
X5086146Y297281D01*
X5096662Y306882D01*
X5105857Y317652D01*
X5113629Y329590D01*
X5119776Y342392D01*
X5124246Y355854D01*
X5126990Y369824D01*
X5127853Y383997D01*
X5126990Y398170D01*
X5124246Y412140D01*
X5119776Y425602D01*
X5113629Y438404D01*
X5105857Y450342D01*
X5096662Y461162D01*
X5086146Y470712D01*
X5074462Y478840D01*
X5061864Y485393D01*
X5048554Y490321D01*
X5034686Y493471D01*
X5020564Y494842D01*
X5006340Y494385D01*
X4992319Y492099D01*
X4978704Y488086D01*
X4965700Y482295D01*
X4953558Y474929D01*
X4942433Y466090D01*
X4932578Y455879D01*
X4924044Y444500D01*
X4917084Y432104D01*
X4911750Y418947D01*
X4908143Y405180D01*
X4906314Y391109D01*
X4906314Y376885D01*
X4908143Y362813D01*
X4911750Y349046D01*
X4917084Y335889D01*
X4924044Y323494D01*
X4932578Y312115D01*
X4942433Y301904D01*
X4953558Y293065D01*
X4965700Y285699D01*
X4978704Y279958D01*
X4992319Y275894D01*
X5006340Y273608D01*
G37*
G36*
X5274564Y273151D02*
G01*
X5288686Y274523D01*
X5302554Y277672D01*
X5315864Y282600D01*
X5328462Y289153D01*
X5340146Y297281D01*
X5350662Y306882D01*
X5359857Y317652D01*
X5367629Y329590D01*
X5373776Y342392D01*
X5378246Y355854D01*
X5380990Y369824D01*
X5381853Y383997D01*
X5380990Y398170D01*
X5378246Y412140D01*
X5373776Y425602D01*
X5367629Y438404D01*
X5359857Y450342D01*
X5350662Y461162D01*
X5340146Y470712D01*
X5328462Y478840D01*
X5315864Y485393D01*
X5302554Y490321D01*
X5288686Y493471D01*
X5274564Y494842D01*
X5260340Y494385D01*
X5246319Y492099D01*
X5232704Y488086D01*
X5219700Y482295D01*
X5207558Y474929D01*
X5196433Y466090D01*
X5186578Y455879D01*
X5178044Y444500D01*
X5171084Y432104D01*
X5165750Y418947D01*
X5162143Y405180D01*
X5160314Y391109D01*
X5160314Y376885D01*
X5162143Y362813D01*
X5165750Y349046D01*
X5171084Y335889D01*
X5178044Y323494D01*
X5186578Y312115D01*
X5196433Y301904D01*
X5207558Y293065D01*
X5219700Y285699D01*
X5232704Y279958D01*
X5246319Y275894D01*
X5260340Y273608D01*
G37*
G36*
X370586Y283108D02*
G01*
X519430Y283108D01*
X525729Y283819D01*
X531215Y285699D01*
X536092Y288798D01*
X540207Y292862D01*
X543306Y297789D01*
X545185Y303225D01*
X545896Y309575D01*
X545896Y458419D01*
X545185Y464769D01*
X543306Y470204D01*
X540207Y475132D01*
X536092Y479196D01*
X531215Y482295D01*
X525729Y484174D01*
X519430Y484885D01*
X370586Y484885D01*
X364236Y484174D01*
X358800Y482295D01*
X353872Y479196D01*
X349808Y475132D01*
X346710Y470204D01*
X344779Y464769D01*
X344068Y458419D01*
X344068Y309575D01*
X344779Y303225D01*
X346710Y297789D01*
X349808Y292862D01*
X353872Y288798D01*
X358800Y285699D01*
X364236Y283819D01*
G37*
G36*
X1711604Y283159D02*
G01*
X1725117Y283616D01*
X1738375Y285851D01*
X1751279Y289864D01*
X1763471Y295503D01*
X1774850Y302768D01*
X1785112Y311505D01*
X1794154Y321462D01*
X1801774Y332587D01*
X1807870Y344627D01*
X1812289Y357327D01*
X1814982Y370535D01*
X1815896Y383997D01*
X1814982Y397459D01*
X1812289Y410667D01*
X1807870Y423367D01*
X1801774Y435406D01*
X1794154Y446532D01*
X1785112Y456539D01*
X1774850Y465226D01*
X1763471Y472490D01*
X1751279Y478129D01*
X1738375Y482142D01*
X1725117Y484378D01*
X1711604Y484835D01*
X1698193Y483463D01*
X1685086Y480364D01*
X1672539Y475488D01*
X1660702Y469036D01*
X1649882Y461060D01*
X1640179Y451662D01*
X1631848Y441096D01*
X1624939Y429514D01*
X1619707Y417068D01*
X1616151Y404114D01*
X1614322Y390753D01*
X1614322Y377240D01*
X1616151Y363880D01*
X1619707Y350926D01*
X1624939Y338480D01*
X1631848Y326898D01*
X1640179Y316331D01*
X1649882Y306933D01*
X1660702Y298958D01*
X1672539Y292506D01*
X1685086Y287629D01*
X1698193Y284530D01*
G37*
G36*
X949604Y283159D02*
G01*
X963117Y283616D01*
X976376Y285851D01*
X989279Y289864D01*
X1001471Y295503D01*
X1012850Y302768D01*
X1023112Y311505D01*
X1032154Y321462D01*
X1039774Y332587D01*
X1045870Y344627D01*
X1050290Y357327D01*
X1052982Y370535D01*
X1053896Y383997D01*
X1052982Y397459D01*
X1050290Y410667D01*
X1045870Y423367D01*
X1039774Y435406D01*
X1032154Y446532D01*
X1023112Y456539D01*
X1012850Y465226D01*
X1001471Y472490D01*
X989279Y478129D01*
X976376Y482142D01*
X963117Y484378D01*
X949604Y484835D01*
X936193Y483463D01*
X923086Y480364D01*
X910539Y475488D01*
X898702Y469036D01*
X887882Y461060D01*
X878179Y451662D01*
X869848Y441096D01*
X862939Y429514D01*
X857707Y417068D01*
X854151Y404114D01*
X852322Y390753D01*
X852322Y377240D01*
X854151Y363880D01*
X857707Y350926D01*
X862939Y338480D01*
X869848Y326898D01*
X878179Y316331D01*
X887882Y306933D01*
X898702Y298958D01*
X910539Y292506D01*
X923086Y287629D01*
X936193Y284530D01*
G37*
G36*
X695604Y283159D02*
G01*
X709117Y283616D01*
X722376Y285851D01*
X735279Y289864D01*
X747471Y295503D01*
X758850Y302768D01*
X769112Y311505D01*
X778154Y321462D01*
X785774Y332587D01*
X791870Y344627D01*
X796290Y357327D01*
X798982Y370535D01*
X799896Y383997D01*
X798982Y397459D01*
X796290Y410667D01*
X791870Y423367D01*
X785774Y435406D01*
X778154Y446532D01*
X769112Y456539D01*
X758850Y465226D01*
X747471Y472490D01*
X735279Y478129D01*
X722376Y482142D01*
X709117Y484378D01*
X695604Y484835D01*
X682193Y483463D01*
X669086Y480364D01*
X656539Y475488D01*
X644702Y469036D01*
X633882Y461060D01*
X624179Y451662D01*
X615848Y441096D01*
X608939Y429514D01*
X603707Y417068D01*
X600151Y404114D01*
X598322Y390753D01*
X598322Y377240D01*
X600151Y363880D01*
X603707Y350926D01*
X608939Y338480D01*
X615848Y326898D01*
X624179Y316331D01*
X633882Y306933D01*
X644702Y298958D01*
X656539Y292506D01*
X669086Y287629D01*
X682193Y284530D01*
G37*
G36*
X1457604Y283159D02*
G01*
X1471117Y283616D01*
X1484376Y285851D01*
X1497279Y289864D01*
X1509471Y295503D01*
X1520850Y302768D01*
X1531112Y311505D01*
X1540154Y321462D01*
X1547774Y332587D01*
X1553870Y344627D01*
X1558290Y357327D01*
X1560982Y370535D01*
X1561896Y383997D01*
X1560982Y397459D01*
X1558290Y410667D01*
X1553870Y423367D01*
X1547774Y435406D01*
X1540154Y446532D01*
X1531112Y456539D01*
X1520850Y465226D01*
X1509471Y472490D01*
X1497279Y478129D01*
X1484376Y482142D01*
X1471117Y484378D01*
X1457604Y484835D01*
X1444193Y483463D01*
X1431086Y480364D01*
X1418539Y475488D01*
X1406702Y469036D01*
X1395882Y461060D01*
X1386179Y451662D01*
X1377848Y441096D01*
X1370939Y429514D01*
X1365707Y417068D01*
X1362151Y404114D01*
X1360322Y390753D01*
X1360322Y377240D01*
X1362151Y363880D01*
X1365707Y350926D01*
X1370939Y338480D01*
X1377848Y326898D01*
X1386179Y316331D01*
X1395882Y306933D01*
X1406702Y298958D01*
X1418539Y292506D01*
X1431086Y287629D01*
X1444193Y284530D01*
G37*
G36*
X1203604Y283159D02*
G01*
X1217117Y283616D01*
X1230376Y285851D01*
X1243279Y289864D01*
X1255471Y295503D01*
X1266850Y302768D01*
X1277112Y311505D01*
X1286154Y321462D01*
X1293774Y332587D01*
X1299870Y344627D01*
X1304290Y357327D01*
X1306982Y370535D01*
X1307896Y383997D01*
X1306982Y397459D01*
X1304290Y410667D01*
X1299870Y423367D01*
X1293774Y435406D01*
X1286154Y446532D01*
X1277112Y456539D01*
X1266850Y465226D01*
X1255471Y472490D01*
X1243279Y478129D01*
X1230376Y482142D01*
X1217117Y484378D01*
X1203604Y484835D01*
X1190193Y483463D01*
X1177086Y480364D01*
X1164539Y475488D01*
X1152702Y469036D01*
X1141882Y461060D01*
X1132179Y451662D01*
X1123848Y441096D01*
X1116939Y429514D01*
X1111707Y417068D01*
X1108151Y404114D01*
X1106322Y390753D01*
X1106322Y377240D01*
X1108151Y363880D01*
X1111707Y350926D01*
X1116939Y338480D01*
X1123848Y326898D01*
X1132179Y316331D01*
X1141882Y306933D01*
X1152702Y298958D01*
X1164539Y292506D01*
X1177086Y287629D01*
X1190193Y284530D01*
G37*
G36*
X1965604Y283159D02*
G01*
X1979117Y283616D01*
X1992375Y285851D01*
X2005279Y289864D01*
X2017471Y295503D01*
X2028850Y302768D01*
X2039112Y311505D01*
X2048154Y321462D01*
X2055774Y332587D01*
X2061870Y344627D01*
X2066289Y357327D01*
X2068982Y370535D01*
X2069896Y383997D01*
X2068982Y397459D01*
X2066289Y410667D01*
X2061870Y423367D01*
X2055774Y435406D01*
X2048154Y446532D01*
X2039112Y456539D01*
X2028850Y465226D01*
X2017471Y472490D01*
X2005279Y478129D01*
X1992375Y482142D01*
X1979117Y484378D01*
X1965604Y484835D01*
X1952193Y483463D01*
X1939086Y480364D01*
X1926539Y475488D01*
X1914702Y469036D01*
X1903882Y461060D01*
X1894179Y451662D01*
X1885848Y441096D01*
X1878939Y429514D01*
X1873707Y417068D01*
X1870151Y404114D01*
X1868322Y390753D01*
X1868322Y377240D01*
X1870151Y363880D01*
X1873707Y350926D01*
X1878939Y338480D01*
X1885848Y326898D01*
X1894179Y316331D01*
X1903882Y306933D01*
X1914702Y298958D01*
X1926539Y292506D01*
X1939086Y287629D01*
X1952193Y284530D01*
G37*
G36*
X2219604Y283159D02*
G01*
X2233117Y283616D01*
X2246376Y285851D01*
X2259279Y289864D01*
X2271471Y295503D01*
X2282850Y302768D01*
X2293112Y311505D01*
X2302154Y321462D01*
X2309774Y332587D01*
X2315870Y344627D01*
X2320290Y357327D01*
X2322982Y370535D01*
X2323896Y383997D01*
X2322982Y397459D01*
X2320290Y410667D01*
X2315870Y423367D01*
X2309774Y435406D01*
X2302154Y446532D01*
X2293112Y456539D01*
X2282850Y465226D01*
X2271471Y472490D01*
X2259279Y478129D01*
X2246376Y482142D01*
X2233117Y484378D01*
X2219604Y484835D01*
X2206193Y483463D01*
X2193086Y480364D01*
X2180539Y475488D01*
X2168702Y469036D01*
X2157882Y461060D01*
X2148179Y451662D01*
X2139848Y441096D01*
X2132939Y429514D01*
X2127707Y417068D01*
X2124151Y404114D01*
X2122322Y390753D01*
X2122322Y377240D01*
X2124151Y363880D01*
X2127707Y350926D01*
X2132939Y338480D01*
X2139848Y326898D01*
X2148179Y316331D01*
X2157882Y306933D01*
X2168702Y298958D01*
X2180539Y292506D01*
X2193086Y287629D01*
X2206193Y284530D01*
G37*
G36*
X4046728Y432866D02*
G01*
X4105656Y432866D01*
X4105656Y468426D01*
X4104944Y474726D01*
X4103014Y480212D01*
X4099915Y485089D01*
X4095851Y489204D01*
X4090924Y492302D01*
X4085488Y494182D01*
X4079138Y494893D01*
X4046728Y494893D01*
G37*
G36*
X3896360Y432866D02*
G01*
X3955287Y432866D01*
X3955287Y494893D01*
X3922826Y494893D01*
X3916476Y494182D01*
X3911041Y492302D01*
X3906113Y489204D01*
X3902049Y485089D01*
X3898950Y480212D01*
X3897071Y474726D01*
X3896360Y468426D01*
G37*
G36*
X212445Y673150D02*
G01*
X221996Y674420D01*
X231190Y677214D01*
X239826Y681583D01*
X247599Y687324D01*
X254254Y694283D01*
X259638Y702259D01*
X263652Y711047D01*
X266039Y720394D01*
X266903Y729996D01*
X266039Y739597D01*
X263652Y748944D01*
X259638Y757732D01*
X254254Y765708D01*
X247599Y772668D01*
X239826Y778408D01*
X231190Y782777D01*
X221996Y785571D01*
X212445Y786841D01*
X202793Y786384D01*
X193344Y784352D01*
X184404Y780796D01*
X176174Y775716D01*
X168960Y769366D01*
X162864Y761847D01*
X158191Y753414D01*
X154990Y744321D01*
X153365Y734822D01*
X153365Y725170D01*
X154990Y715670D01*
X158191Y706577D01*
X162864Y698144D01*
X168960Y690626D01*
X176174Y684276D01*
X184404Y679196D01*
X193344Y675640D01*
X202793Y673608D01*
G37*
G36*
X692404Y813155D02*
G01*
X701954Y814425D01*
X711200Y817219D01*
X719785Y821588D01*
X727557Y827328D01*
X734263Y834288D01*
X739648Y842264D01*
X743610Y851052D01*
X746048Y860399D01*
X746861Y870000D01*
X746048Y879602D01*
X743610Y888949D01*
X739648Y897737D01*
X734263Y905713D01*
X727557Y912672D01*
X719785Y918413D01*
X711200Y922782D01*
X701954Y925576D01*
X692404Y926846D01*
X682752Y926388D01*
X673354Y924356D01*
X664362Y920800D01*
X656183Y915720D01*
X648919Y909370D01*
X642874Y901852D01*
X638149Y893419D01*
X634949Y884326D01*
X633323Y874826D01*
X633323Y865174D01*
X634949Y855675D01*
X638149Y846582D01*
X642874Y838149D01*
X648919Y830630D01*
X656183Y824280D01*
X664362Y819200D01*
X673354Y815644D01*
X682752Y813612D01*
G37*
G36*
X3072434Y883158D02*
G01*
X3081985Y884428D01*
X3091180Y887221D01*
X3099816Y891590D01*
X3107588Y897331D01*
X3114243Y904290D01*
X3119628Y912266D01*
X3123641Y921054D01*
X3126028Y930402D01*
X3126892Y940003D01*
X3126028Y949604D01*
X3123641Y958951D01*
X3119628Y967740D01*
X3114243Y975715D01*
X3107588Y982675D01*
X3099816Y988415D01*
X3091180Y992784D01*
X3081985Y995578D01*
X3072434Y996848D01*
X3062782Y996391D01*
X3053334Y994359D01*
X3044393Y990803D01*
X3036163Y985723D01*
X3028950Y979373D01*
X3022854Y971854D01*
X3018180Y963421D01*
X3014980Y954328D01*
X3013354Y944829D01*
X3013354Y935177D01*
X3014980Y925677D01*
X3018180Y916584D01*
X3022854Y908151D01*
X3028950Y900633D01*
X3036163Y894283D01*
X3044393Y889203D01*
X3053334Y885647D01*
X3062782Y883615D01*
G37*
G36*
X3292398Y1033170D02*
G01*
X3301949Y1034389D01*
X3311194Y1037234D01*
X3319779Y1041552D01*
X3327552Y1047292D01*
X3334258Y1054252D01*
X3339642Y1062278D01*
X3343605Y1071067D01*
X3346043Y1080363D01*
X3346856Y1089964D01*
X3346043Y1099616D01*
X3343605Y1108913D01*
X3339642Y1117701D01*
X3334258Y1125728D01*
X3327552Y1132687D01*
X3319779Y1138428D01*
X3311194Y1142746D01*
X3301949Y1145590D01*
X3292398Y1146810D01*
X3282746Y1146403D01*
X3273348Y1144371D01*
X3264357Y1140764D01*
X3256178Y1135735D01*
X3248914Y1129334D01*
X3242868Y1121816D01*
X3238144Y1113434D01*
X3234944Y1104341D01*
X3233318Y1094790D01*
X3233318Y1085189D01*
X3234944Y1075639D01*
X3238144Y1066546D01*
X3242868Y1058164D01*
X3248914Y1050645D01*
X3256178Y1044244D01*
X3264357Y1039215D01*
X3273348Y1035608D01*
X3282746Y1033576D01*
G37*
G36*
X2422398Y1073150D02*
G01*
X2431948Y1074420D01*
X2441194Y1077214D01*
X2449779Y1081582D01*
X2457551Y1087323D01*
X2464257Y1094282D01*
X2469642Y1102258D01*
X2473604Y1111046D01*
X2476042Y1120394D01*
X2476855Y1129995D01*
X2476042Y1139596D01*
X2473604Y1148943D01*
X2469642Y1157732D01*
X2464257Y1165707D01*
X2457551Y1172667D01*
X2449779Y1178407D01*
X2441194Y1182776D01*
X2431948Y1185570D01*
X2422398Y1186840D01*
X2412746Y1186383D01*
X2403348Y1184351D01*
X2394356Y1180795D01*
X2386177Y1175715D01*
X2378913Y1169365D01*
X2372868Y1161846D01*
X2368143Y1153414D01*
X2364943Y1144320D01*
X2363317Y1134821D01*
X2363317Y1125169D01*
X2364943Y1115669D01*
X2368143Y1106576D01*
X2372868Y1098143D01*
X2378913Y1090625D01*
X2386177Y1084275D01*
X2394356Y1079195D01*
X2403348Y1075639D01*
X2412746Y1073607D01*
G37*
G36*
X3872433Y1083157D02*
G01*
X3881983Y1084427D01*
X3891178Y1087221D01*
X3899814Y1091590D01*
X3907586Y1097330D01*
X3914241Y1104290D01*
X3919626Y1112266D01*
X3923639Y1121054D01*
X3926027Y1130401D01*
X3926890Y1140002D01*
X3926027Y1149604D01*
X3923639Y1158951D01*
X3919626Y1167739D01*
X3914241Y1175715D01*
X3907586Y1182674D01*
X3899814Y1188415D01*
X3891178Y1192784D01*
X3881983Y1195578D01*
X3872433Y1196848D01*
X3862781Y1196390D01*
X3853332Y1194358D01*
X3844391Y1190802D01*
X3836162Y1185722D01*
X3828948Y1179372D01*
X3822852Y1171854D01*
X3818178Y1163421D01*
X3814978Y1154328D01*
X3813352Y1144828D01*
X3813352Y1135176D01*
X3814978Y1125677D01*
X3818178Y1116584D01*
X3822852Y1108151D01*
X3828948Y1100632D01*
X3836162Y1094282D01*
X3844391Y1089202D01*
X3853332Y1085646D01*
X3862781Y1083614D01*
G37*
G36*
X1227429Y1133144D02*
G01*
X1236980Y1134414D01*
X1246174Y1137208D01*
X1254810Y1141577D01*
X1262583Y1147318D01*
X1269238Y1154277D01*
X1274622Y1162253D01*
X1278636Y1171041D01*
X1281023Y1180388D01*
X1281887Y1189990D01*
X1281023Y1199591D01*
X1278636Y1208938D01*
X1274622Y1217726D01*
X1269238Y1225702D01*
X1262583Y1232662D01*
X1254810Y1238402D01*
X1246174Y1242771D01*
X1236980Y1245565D01*
X1227429Y1246835D01*
X1217777Y1246378D01*
X1208328Y1244346D01*
X1199388Y1240790D01*
X1191158Y1235710D01*
X1183944Y1229360D01*
X1177848Y1221841D01*
X1173175Y1213408D01*
X1169974Y1204315D01*
X1168349Y1194816D01*
X1168349Y1185164D01*
X1169974Y1175664D01*
X1173175Y1166571D01*
X1177848Y1158138D01*
X1183944Y1150620D01*
X1191158Y1144270D01*
X1199388Y1139190D01*
X1208328Y1135634D01*
X1217777Y1133602D01*
G37*
G36*
X2247442Y1133144D02*
G01*
X2256993Y1134414D01*
X2266188Y1137208D01*
X2274824Y1141577D01*
X2282596Y1147318D01*
X2289251Y1154277D01*
X2294636Y1162253D01*
X2298649Y1171041D01*
X2301036Y1180388D01*
X2301900Y1189990D01*
X2301036Y1199591D01*
X2298649Y1208938D01*
X2294636Y1217726D01*
X2289251Y1225702D01*
X2282596Y1232662D01*
X2274824Y1238402D01*
X2266188Y1242771D01*
X2256993Y1245565D01*
X2247442Y1246835D01*
X2237790Y1246378D01*
X2228342Y1244346D01*
X2219401Y1240790D01*
X2211171Y1235710D01*
X2203958Y1229360D01*
X2197862Y1221841D01*
X2193188Y1213408D01*
X2189988Y1204315D01*
X2188362Y1194816D01*
X2188362Y1185164D01*
X2189988Y1175664D01*
X2193188Y1166571D01*
X2197862Y1158138D01*
X2203958Y1150620D01*
X2211171Y1144270D01*
X2219401Y1139190D01*
X2228342Y1135634D01*
X2237790Y1133602D01*
G37*
G36*
X2702407Y1133144D02*
G01*
X2711958Y1134414D01*
X2721203Y1137208D01*
X2729788Y1141577D01*
X2737561Y1147318D01*
X2744266Y1154277D01*
X2749651Y1162253D01*
X2753614Y1171041D01*
X2756052Y1180388D01*
X2756865Y1189990D01*
X2756052Y1199591D01*
X2753614Y1208938D01*
X2749651Y1217726D01*
X2744266Y1225702D01*
X2737561Y1232662D01*
X2729788Y1238402D01*
X2721203Y1242771D01*
X2711958Y1245565D01*
X2702407Y1246835D01*
X2692755Y1246378D01*
X2683357Y1244346D01*
X2674366Y1240790D01*
X2666187Y1235710D01*
X2658922Y1229360D01*
X2652877Y1221841D01*
X2648153Y1213408D01*
X2644952Y1204315D01*
X2643327Y1194816D01*
X2643327Y1185164D01*
X2644952Y1175664D01*
X2648153Y1166571D01*
X2652877Y1158138D01*
X2658922Y1150620D01*
X2666187Y1144270D01*
X2674366Y1139190D01*
X2683357Y1135634D01*
X2692755Y1133602D01*
G37*
G36*
X4602429Y1163167D02*
G01*
X4611979Y1164386D01*
X4621174Y1167231D01*
X4629810Y1171549D01*
X4637582Y1177290D01*
X4644237Y1184249D01*
X4649622Y1192276D01*
X4653635Y1201064D01*
X4656023Y1210360D01*
X4656886Y1219962D01*
X4656023Y1229614D01*
X4653635Y1238910D01*
X4649622Y1247698D01*
X4644237Y1255725D01*
X4637582Y1262684D01*
X4629810Y1268425D01*
X4621174Y1272743D01*
X4611979Y1275588D01*
X4602429Y1276807D01*
X4592777Y1276400D01*
X4583328Y1274368D01*
X4574387Y1270762D01*
X4566158Y1265732D01*
X4558944Y1259332D01*
X4552848Y1251813D01*
X4548174Y1243431D01*
X4544974Y1234338D01*
X4543348Y1224788D01*
X4543348Y1215186D01*
X4544974Y1205636D01*
X4548174Y1196543D01*
X4552848Y1188161D01*
X4558944Y1180642D01*
X4566158Y1174242D01*
X4574387Y1169212D01*
X4583328Y1165606D01*
X4592777Y1163574D01*
G37*
G36*
X1757425Y1178153D02*
G01*
X1766976Y1179423D01*
X1776171Y1182217D01*
X1784807Y1186586D01*
X1792579Y1192326D01*
X1799234Y1199286D01*
X1804619Y1207262D01*
X1808632Y1216050D01*
X1811020Y1225397D01*
X1811883Y1234998D01*
X1811020Y1244600D01*
X1808632Y1253947D01*
X1804619Y1262735D01*
X1799234Y1270711D01*
X1792579Y1277670D01*
X1784807Y1283411D01*
X1776171Y1287780D01*
X1766976Y1290574D01*
X1757425Y1291844D01*
X1747774Y1291386D01*
X1738325Y1289354D01*
X1729384Y1285798D01*
X1721154Y1280718D01*
X1713941Y1274368D01*
X1707845Y1266850D01*
X1703171Y1258417D01*
X1699971Y1249324D01*
X1698345Y1239824D01*
X1698345Y1230172D01*
X1699971Y1220673D01*
X1703171Y1211580D01*
X1707845Y1203147D01*
X1713941Y1195628D01*
X1721154Y1189278D01*
X1729384Y1184198D01*
X1738325Y1180642D01*
X1747774Y1178610D01*
G37*
G36*
X3862425Y1223162D02*
G01*
X3871976Y1224432D01*
X3881170Y1227226D01*
X3889806Y1231595D01*
X3897579Y1237335D01*
X3904234Y1244295D01*
X3909618Y1252270D01*
X3913632Y1261059D01*
X3916019Y1270406D01*
X3916883Y1280007D01*
X3916019Y1289608D01*
X3913632Y1298956D01*
X3909618Y1307744D01*
X3904234Y1315720D01*
X3897579Y1322679D01*
X3889806Y1328420D01*
X3881170Y1332788D01*
X3871976Y1335582D01*
X3862425Y1336852D01*
X3852773Y1336395D01*
X3843324Y1334363D01*
X3834384Y1330807D01*
X3826154Y1325727D01*
X3818940Y1319377D01*
X3812844Y1311859D01*
X3808171Y1303426D01*
X3804970Y1294333D01*
X3803345Y1284833D01*
X3803345Y1275181D01*
X3804970Y1265682D01*
X3808171Y1256588D01*
X3812844Y1248156D01*
X3818940Y1240637D01*
X3826154Y1234287D01*
X3834384Y1229207D01*
X3843324Y1225651D01*
X3852773Y1223619D01*
G37*
G36*
X4112412Y1233170D02*
G01*
X4121962Y1234389D01*
X4131208Y1237234D01*
X4139793Y1241552D01*
X4147565Y1247292D01*
X4154271Y1254252D01*
X4159656Y1262278D01*
X4163618Y1271066D01*
X4166057Y1280363D01*
X4166870Y1289964D01*
X4166057Y1299616D01*
X4163618Y1308912D01*
X4159656Y1317701D01*
X4154271Y1325727D01*
X4147565Y1332687D01*
X4139793Y1338427D01*
X4131208Y1342745D01*
X4121962Y1345590D01*
X4112412Y1346809D01*
X4102760Y1346403D01*
X4093362Y1344371D01*
X4084370Y1340764D01*
X4076192Y1335735D01*
X4068927Y1329334D01*
X4062882Y1321816D01*
X4058158Y1313434D01*
X4054957Y1304340D01*
X4053332Y1294790D01*
X4053332Y1285189D01*
X4054957Y1275638D01*
X4058158Y1266545D01*
X4062882Y1258163D01*
X4068927Y1250645D01*
X4076192Y1244244D01*
X4084370Y1239215D01*
X4093362Y1235608D01*
X4102760Y1233576D01*
G37*
G36*
X3460597Y1249172D02*
G01*
X3470148Y1250391D01*
X3479393Y1253236D01*
X3487978Y1257554D01*
X3495751Y1263294D01*
X3500831Y1268577D01*
X3504387Y1270965D01*
X3508603Y1271727D01*
X3512718Y1270609D01*
X3516071Y1267968D01*
X3517137Y1266647D01*
X3524351Y1260246D01*
X3532581Y1255217D01*
X3541522Y1251610D01*
X3550970Y1249578D01*
X3560622Y1249172D01*
X3570173Y1250391D01*
X3579368Y1253236D01*
X3588004Y1257554D01*
X3595776Y1263294D01*
X3602431Y1270254D01*
X3607815Y1278280D01*
X3611829Y1287068D01*
X3614216Y1296365D01*
X3615080Y1305966D01*
X3614216Y1315618D01*
X3611829Y1324914D01*
X3607815Y1333703D01*
X3602431Y1341729D01*
X3595471Y1348943D01*
X3593388Y1352194D01*
X3592677Y1356004D01*
X3593388Y1359763D01*
X3595471Y1363014D01*
X3602431Y1370279D01*
X3607815Y1378254D01*
X3611829Y1387043D01*
X3614216Y1396390D01*
X3615080Y1405991D01*
X3614216Y1415592D01*
X3611829Y1424940D01*
X3607815Y1433728D01*
X3602431Y1441704D01*
X3595776Y1448663D01*
X3588004Y1454404D01*
X3579368Y1458772D01*
X3570173Y1461566D01*
X3560622Y1462836D01*
X3550970Y1462379D01*
X3541522Y1460347D01*
X3532581Y1456791D01*
X3524351Y1451711D01*
X3517137Y1445361D01*
X3516071Y1444040D01*
X3512718Y1441348D01*
X3508603Y1440281D01*
X3504387Y1440992D01*
X3500831Y1443380D01*
X3495751Y1448663D01*
X3487978Y1454404D01*
X3479393Y1458772D01*
X3470148Y1461566D01*
X3460597Y1462836D01*
X3450945Y1462379D01*
X3441547Y1460347D01*
X3432556Y1456791D01*
X3424377Y1451711D01*
X3417112Y1445361D01*
X3411067Y1437843D01*
X3406343Y1429410D01*
X3403142Y1420317D01*
X3401517Y1410817D01*
X3401517Y1401165D01*
X3403142Y1391666D01*
X3406343Y1382572D01*
X3411067Y1374140D01*
X3417112Y1366621D01*
X3420567Y1363624D01*
X3423107Y1360170D01*
X3424021Y1356004D01*
X3423107Y1351788D01*
X3420567Y1348384D01*
X3417112Y1345336D01*
X3411067Y1337818D01*
X3406343Y1329436D01*
X3403142Y1320342D01*
X3401517Y1310792D01*
X3401517Y1301191D01*
X3403142Y1291640D01*
X3406343Y1282547D01*
X3411067Y1274165D01*
X3417112Y1266647D01*
X3424377Y1260246D01*
X3432556Y1255217D01*
X3441547Y1251610D01*
X3450945Y1249578D01*
G37*
G36*
X5933135Y1339189D02*
G01*
X5945784Y1340510D01*
X5958078Y1343558D01*
X5969812Y1348282D01*
X5980785Y1354632D01*
X5990793Y1362456D01*
X5999632Y1371600D01*
X6007049Y1381810D01*
X6012992Y1393037D01*
X6017361Y1404924D01*
X6020003Y1417370D01*
X6020866Y1429969D01*
X6020003Y1442618D01*
X6017361Y1455064D01*
X6012992Y1466951D01*
X6007049Y1478178D01*
X5999632Y1488389D01*
X5990793Y1497533D01*
X5980785Y1505356D01*
X5969812Y1511655D01*
X5958078Y1516430D01*
X5945784Y1519478D01*
X5933135Y1520799D01*
X5920486Y1520393D01*
X5907989Y1518158D01*
X5895949Y1514246D01*
X5884519Y1508709D01*
X5874054Y1501597D01*
X5864606Y1493113D01*
X5856478Y1483410D01*
X5849721Y1472641D01*
X5844590Y1461058D01*
X5841085Y1448866D01*
X5839307Y1436319D01*
X5839307Y1423670D01*
X5841085Y1411122D01*
X5844590Y1398930D01*
X5849721Y1387348D01*
X5856478Y1376578D01*
X5864606Y1366875D01*
X5874054Y1358392D01*
X5884519Y1351280D01*
X5895949Y1345742D01*
X5907989Y1341831D01*
X5920486Y1339596D01*
G37*
G36*
X6533134Y1339189D02*
G01*
X6545783Y1340510D01*
X6558076Y1343558D01*
X6569811Y1348282D01*
X6580784Y1354632D01*
X6590792Y1362456D01*
X6599631Y1371600D01*
X6607048Y1381810D01*
X6612991Y1393037D01*
X6617360Y1404924D01*
X6620002Y1417370D01*
X6620865Y1429969D01*
X6620002Y1442618D01*
X6617360Y1455064D01*
X6612991Y1466951D01*
X6607048Y1478178D01*
X6599631Y1488389D01*
X6590792Y1497533D01*
X6580784Y1505356D01*
X6569811Y1511655D01*
X6558076Y1516430D01*
X6545783Y1519478D01*
X6533134Y1520799D01*
X6520484Y1520393D01*
X6507988Y1518158D01*
X6495948Y1514246D01*
X6484518Y1508709D01*
X6474053Y1501597D01*
X6464604Y1493113D01*
X6456476Y1483410D01*
X6449720Y1472641D01*
X6444589Y1461058D01*
X6441084Y1448866D01*
X6439306Y1436319D01*
X6439306Y1423670D01*
X6441084Y1411122D01*
X6444589Y1398930D01*
X6449720Y1387348D01*
X6456476Y1376578D01*
X6464604Y1366875D01*
X6474053Y1358392D01*
X6484518Y1351280D01*
X6495948Y1345742D01*
X6507988Y1341831D01*
X6520484Y1339596D01*
G37*
G36*
X3172409Y1373174D02*
G01*
X3181959Y1374394D01*
X3191205Y1377238D01*
X3199790Y1381556D01*
X3207562Y1387297D01*
X3214268Y1394256D01*
X3219653Y1402283D01*
X3223615Y1411071D01*
X3226054Y1420368D01*
X3226866Y1429969D01*
X3226054Y1439621D01*
X3223615Y1448917D01*
X3219653Y1457706D01*
X3214268Y1465732D01*
X3207562Y1472692D01*
X3199790Y1478432D01*
X3191205Y1482750D01*
X3181959Y1485595D01*
X3172409Y1486814D01*
X3162757Y1486408D01*
X3153359Y1484376D01*
X3144367Y1480769D01*
X3136188Y1475740D01*
X3128924Y1469339D01*
X3122879Y1461820D01*
X3118154Y1453438D01*
X3114954Y1444345D01*
X3113328Y1434795D01*
X3113328Y1425194D01*
X3114954Y1415643D01*
X3118154Y1406550D01*
X3122879Y1398168D01*
X3128924Y1390650D01*
X3136188Y1384249D01*
X3144367Y1379220D01*
X3153359Y1375613D01*
X3162757Y1373581D01*
G37*
G36*
X3902405Y1673148D02*
G01*
X3911955Y1674418D01*
X3921201Y1677212D01*
X3929786Y1681581D01*
X3937558Y1687322D01*
X3944264Y1694281D01*
X3949649Y1702257D01*
X3953611Y1711045D01*
X3956050Y1720392D01*
X3956862Y1729993D01*
X3956050Y1739595D01*
X3953611Y1748942D01*
X3949649Y1757730D01*
X3944264Y1765706D01*
X3937558Y1772666D01*
X3929786Y1778406D01*
X3921201Y1782775D01*
X3911955Y1785569D01*
X3902405Y1786839D01*
X3892753Y1786382D01*
X3883355Y1784350D01*
X3874363Y1780793D01*
X3866184Y1775714D01*
X3858920Y1769364D01*
X3852875Y1761845D01*
X3848150Y1753412D01*
X3844950Y1744319D01*
X3843324Y1734820D01*
X3843324Y1725168D01*
X3844950Y1715668D01*
X3848150Y1706575D01*
X3852875Y1698142D01*
X3858920Y1690624D01*
X3866184Y1684274D01*
X3874363Y1679193D01*
X3883355Y1675638D01*
X3892753Y1673606D01*
G37*
G36*
X2402433Y1673148D02*
G01*
X2411984Y1674418D01*
X2421178Y1677212D01*
X2429814Y1681581D01*
X2437587Y1687322D01*
X2444242Y1694281D01*
X2449626Y1702257D01*
X2453640Y1711045D01*
X2456027Y1720392D01*
X2456891Y1729993D01*
X2456027Y1739595D01*
X2453640Y1748942D01*
X2449626Y1757730D01*
X2444242Y1765706D01*
X2437587Y1772666D01*
X2429814Y1778406D01*
X2421178Y1782775D01*
X2411984Y1785569D01*
X2402433Y1786839D01*
X2392781Y1786382D01*
X2383332Y1784350D01*
X2374392Y1780793D01*
X2366162Y1775714D01*
X2358948Y1769364D01*
X2352852Y1761845D01*
X2348179Y1753412D01*
X2344978Y1744319D01*
X2343353Y1734820D01*
X2343353Y1725168D01*
X2344978Y1715668D01*
X2348179Y1706575D01*
X2352852Y1698142D01*
X2358948Y1690624D01*
X2366162Y1684274D01*
X2374392Y1679193D01*
X2383332Y1675638D01*
X2392781Y1673606D01*
G37*
G36*
X3162401Y1763166D02*
G01*
X3171952Y1764385D01*
X3181197Y1767230D01*
X3189782Y1771548D01*
X3197555Y1777288D01*
X3204260Y1784248D01*
X3209645Y1792274D01*
X3213608Y1801063D01*
X3216046Y1810359D01*
X3216859Y1819960D01*
X3216046Y1829612D01*
X3213608Y1838909D01*
X3209645Y1847697D01*
X3204260Y1855724D01*
X3197555Y1862683D01*
X3189782Y1868424D01*
X3181197Y1872742D01*
X3171952Y1875586D01*
X3162401Y1876806D01*
X3152749Y1876399D01*
X3143351Y1874367D01*
X3134360Y1870760D01*
X3126181Y1865731D01*
X3118916Y1859330D01*
X3112871Y1851812D01*
X3108147Y1843430D01*
X3104946Y1834337D01*
X3103321Y1824786D01*
X3103321Y1815185D01*
X3104946Y1805635D01*
X3108147Y1796542D01*
X3112871Y1788160D01*
X3118916Y1780641D01*
X3126181Y1774240D01*
X3134360Y1769211D01*
X3143351Y1765604D01*
X3152749Y1763572D01*
G37*
G36*
X1352448Y1828139D02*
G01*
X1361998Y1829409D01*
X1371193Y1832203D01*
X1379829Y1836572D01*
X1387602Y1842312D01*
X1394256Y1849272D01*
X1399641Y1857248D01*
X1403654Y1866036D01*
X1406042Y1875383D01*
X1406906Y1884984D01*
X1406042Y1894586D01*
X1403654Y1903933D01*
X1399641Y1912721D01*
X1394256Y1920697D01*
X1387602Y1927656D01*
X1379829Y1933397D01*
X1371193Y1937766D01*
X1361998Y1940560D01*
X1352448Y1941830D01*
X1342796Y1941372D01*
X1333347Y1939340D01*
X1324406Y1935784D01*
X1316177Y1930704D01*
X1308963Y1924354D01*
X1302867Y1916836D01*
X1298194Y1908403D01*
X1294993Y1899310D01*
X1293368Y1889810D01*
X1293368Y1880158D01*
X1294993Y1870659D01*
X1298194Y1861566D01*
X1302867Y1853133D01*
X1308963Y1845614D01*
X1316177Y1839264D01*
X1324406Y1834184D01*
X1333347Y1830628D01*
X1342796Y1828596D01*
G37*
G36*
X2321407Y1831187D02*
G01*
X2330958Y1832406D01*
X2340203Y1835251D01*
X2348788Y1839569D01*
X2356561Y1845310D01*
X2363266Y1852269D01*
X2368651Y1860296D01*
X2372614Y1869084D01*
X2375052Y1878380D01*
X2375865Y1887982D01*
X2375052Y1897634D01*
X2372614Y1906930D01*
X2368651Y1915718D01*
X2363266Y1923745D01*
X2356561Y1930704D01*
X2348788Y1936445D01*
X2340203Y1940763D01*
X2330958Y1943607D01*
X2321407Y1944827D01*
X2311755Y1944420D01*
X2302357Y1942388D01*
X2293366Y1938782D01*
X2285187Y1933752D01*
X2277922Y1927352D01*
X2271877Y1919833D01*
X2267153Y1911451D01*
X2263952Y1902358D01*
X2262327Y1892807D01*
X2262327Y1883206D01*
X2263952Y1873656D01*
X2267153Y1864563D01*
X2271877Y1856181D01*
X2277922Y1848662D01*
X2285187Y1842262D01*
X2293366Y1837232D01*
X2302357Y1833625D01*
X2311755Y1831593D01*
G37*
G36*
X1882444Y1873148D02*
G01*
X1891995Y1874418D01*
X1901189Y1877212D01*
X1909825Y1881581D01*
X1917598Y1887321D01*
X1924253Y1894281D01*
X1929638Y1902256D01*
X1933651Y1911045D01*
X1936038Y1920392D01*
X1936902Y1929993D01*
X1936038Y1939594D01*
X1933651Y1948942D01*
X1929638Y1957730D01*
X1924253Y1965706D01*
X1917598Y1972665D01*
X1909825Y1978406D01*
X1901189Y1982774D01*
X1891995Y1985568D01*
X1882444Y1986838D01*
X1872792Y1986381D01*
X1863343Y1984349D01*
X1854403Y1980793D01*
X1846173Y1975713D01*
X1838960Y1969363D01*
X1832864Y1961845D01*
X1828190Y1953412D01*
X1824989Y1944319D01*
X1823364Y1934819D01*
X1823364Y1925167D01*
X1824989Y1915668D01*
X1828190Y1906574D01*
X1832864Y1898142D01*
X1838960Y1890623D01*
X1846173Y1884273D01*
X1854403Y1879193D01*
X1863343Y1875637D01*
X1872792Y1873605D01*
G37*
G36*
X2582418Y1873148D02*
G01*
X2591968Y1874418D01*
X2601214Y1877212D01*
X2609799Y1881581D01*
X2617571Y1887321D01*
X2624277Y1894281D01*
X2629662Y1902256D01*
X2633624Y1911045D01*
X2636062Y1920392D01*
X2636875Y1929993D01*
X2636062Y1939594D01*
X2633624Y1948942D01*
X2629662Y1957730D01*
X2624277Y1965706D01*
X2617571Y1972665D01*
X2609799Y1978406D01*
X2601214Y1982774D01*
X2591968Y1985568D01*
X2582418Y1986838D01*
X2572766Y1986381D01*
X2563368Y1984349D01*
X2554376Y1980793D01*
X2546197Y1975713D01*
X2538933Y1969363D01*
X2532888Y1961845D01*
X2528163Y1953412D01*
X2524963Y1944319D01*
X2523337Y1934819D01*
X2523337Y1925167D01*
X2524963Y1915668D01*
X2528163Y1906574D01*
X2532888Y1898142D01*
X2538933Y1890623D01*
X2546197Y1884273D01*
X2554376Y1879193D01*
X2563368Y1875637D01*
X2572766Y1873605D01*
G37*
G36*
X6482435Y1973173D02*
G01*
X6491986Y1974392D01*
X6501180Y1977237D01*
X6509816Y1981555D01*
X6513779Y1984502D01*
X6517385Y1986178D01*
X6521450Y1986330D01*
X6525209Y1984959D01*
X6534404Y1979218D01*
X6543344Y1975612D01*
X6552742Y1973580D01*
X6562394Y1973173D01*
X6571945Y1974392D01*
X6581190Y1977237D01*
X6589775Y1981555D01*
X6597548Y1987296D01*
X6604253Y1994255D01*
X6609638Y2002282D01*
X6613601Y2011070D01*
X6616039Y2020366D01*
X6616852Y2029968D01*
X6616039Y2039620D01*
X6613601Y2048916D01*
X6609638Y2057704D01*
X6604253Y2065731D01*
X6597548Y2072690D01*
X6589775Y2078431D01*
X6581190Y2082749D01*
X6571945Y2085593D01*
X6562394Y2086813D01*
X6552742Y2086406D01*
X6543344Y2084374D01*
X6534404Y2080768D01*
X6525209Y2075027D01*
X6521450Y2073656D01*
X6517385Y2073808D01*
X6513779Y2075484D01*
X6509816Y2078431D01*
X6501180Y2082749D01*
X6491986Y2085593D01*
X6482435Y2086813D01*
X6472783Y2086406D01*
X6463334Y2084374D01*
X6454394Y2080768D01*
X6446164Y2075738D01*
X6438950Y2069338D01*
X6432854Y2061819D01*
X6428181Y2053437D01*
X6424980Y2044344D01*
X6423355Y2034793D01*
X6423355Y2025192D01*
X6424980Y2015642D01*
X6428181Y2006549D01*
X6432854Y1998167D01*
X6438950Y1990648D01*
X6446164Y1984248D01*
X6454394Y1979218D01*
X6463334Y1975612D01*
X6472783Y1973580D01*
G37*

%LPD*%
D10*
G01*
X445007Y383997D03*
D11*
G01*
X699007Y383997D03*
G01*
X953007Y383997D03*
G01*
X1207007Y383997D03*
G01*
X1461007Y383997D03*
G01*
X1715007Y383997D03*
G01*
X1969008Y383997D03*
G01*
X2223008Y383997D03*
D12*
G01*
X6286982Y383997D03*
G01*
X6032982Y383997D03*
G01*
X5778982Y383997D03*
G01*
X5524982Y383997D03*
G01*
X5270982Y383997D03*
G01*
X5016982Y383997D03*
G01*
X4762982Y383997D03*
G01*
X4508982Y383997D03*
G01*
X4254982Y383997D03*
D13*
G01*
X4000982Y383997D03*
D14*
G01*
X1754987Y1234998D03*
G01*
X1224991Y1189989D03*
G01*
X3859987Y1280007D03*
G01*
X3869994Y1140002D03*
G01*
X3458184Y1305991D03*
G01*
X3558184Y1305991D03*
G01*
X3558184Y1405991D03*
G01*
X3458184Y1405991D03*
G01*
X210007Y729995D03*
G01*
X970000Y729995D03*
G01*
X3169996Y1429994D03*
G01*
X689990Y870000D03*
G01*
X1350010Y1884984D03*
G01*
X1880006Y1929993D03*
G01*
X2399995Y1729994D03*
G01*
X2580004Y1929993D03*
G01*
X3159988Y1819986D03*
G01*
X2318994Y1888007D03*
G01*
X3289985Y1089990D03*
G01*
X3069996Y940003D03*
G01*
X2699994Y1189989D03*
G01*
X2419984Y1129995D03*
G01*
X2589987Y780008D03*
G01*
X3899992Y1729994D03*
G01*
X4599990Y1219987D03*
G01*
X4109999Y1289989D03*
G01*
X4599990Y1429994D03*
G01*
X6559981Y2029993D03*
G01*
X6479997Y2029993D03*
G01*
X2245004Y1189989D03*
G01*
X1347998Y2024997D03*
G01*
X1229997Y1329997D03*
M02*
