G04 Layer: TopSolderMaskLayer*
G04 EasyEDA v6.5.42, 2024-04-19 21:15:47*
G04 b74b0dd8b7a74548b8b14c9367106a0f,9fa9616398974da3a60ce9969dc7753a,10*
G04 Gerber Generator version 0.2*
G04 Scale: 100 percent, Rotated: No, Reflected: No *
G04 Dimensions in millimeters *
G04 leading zeros omitted , absolute positions ,4 integer and 5 decimal *
%FSLAX45Y45*%
%MOMM*%

%AMMACRO1*1,1,$1,$2,$3*1,1,$1,$4,$5*1,1,$1,0-$2,0-$3*1,1,$1,0-$4,0-$5*20,1,$1,$2,$3,$4,$5,0*20,1,$1,$4,$5,0-$2,0-$3,0*20,1,$1,0-$2,0-$3,0-$4,0-$5,0*20,1,$1,0-$4,0-$5,$2,$3,0*4,1,4,$2,$3,$4,$5,0-$2,0-$3,0-$4,0-$5,$2,$3,0*%
%ADD10MACRO1,0.1016X-0.7425X-0.864X-0.7425X0.864*%
%ADD11MACRO1,0.1016X0.7425X-0.864X0.7425X0.864*%
%ADD12MACRO1,0.1016X0.7425X0.864X0.7425X-0.864*%
%ADD13MACRO1,0.1016X-0.7425X0.864X-0.7425X-0.864*%
%ADD14MACRO1,0.1016X-0.675X0.705X0.675X0.705*%
%ADD15MACRO1,0.1016X-0.675X-0.705X0.675X-0.705*%
%ADD16MACRO1,0.1016X-0.4X0.45X0.4X0.45*%
%ADD17MACRO1,0.1016X0.4X-0.45X-0.4X-0.45*%
%ADD18MACRO1,0.1016X0.45X0.4X0.45X-0.4*%
%ADD19MACRO1,0.1016X-0.75X0.75X0.75X0.75*%
%ADD20C,1.6016*%
%ADD21C,1.8016*%
%ADD22MACRO1,0.1016X-0.7874X0.85X0.7874X0.85*%
%ADD23MACRO1,0.1016X0.75X1.5X0.75X-1.5*%
%ADD24MACRO1,0.1016X0.4032X0.432X0.4032X-0.432*%
%ADD25MACRO1,0.1016X-0.4032X0.432X-0.4032X-0.432*%
%ADD26MACRO1,0.2032X-0.5665X0.762X0.5665X0.762*%
%ADD27O,0.3800348X0.9000236*%
%ADD28O,0.9000236X0.3800348*%
%ADD29MACRO1,0.1X-1.35X1.35X1.35X1.35*%
%ADD30MACRO1,0.1016X0.55X-0.35X-0.55X-0.35*%
%ADD31MACRO1,0.1016X-0.55X0.35X0.55X0.35*%

%LPD*%
D10*
G01*
X5259240Y1029997D03*
D11*
G01*
X4940739Y1029997D03*
D10*
G01*
X5259240Y1829996D03*
D11*
G01*
X4940739Y1829996D03*
D12*
G01*
X2400744Y1569996D03*
D13*
G01*
X2719245Y1569996D03*
D10*
G01*
X3069244Y779998D03*
D11*
G01*
X2750743Y779998D03*
D14*
G01*
X3309993Y1819993D03*
D15*
G01*
X3309993Y2019998D03*
D14*
G01*
X2559994Y1129995D03*
D15*
G01*
X2559994Y1329999D03*
D14*
G01*
X4459991Y1229994D03*
D15*
G01*
X4459991Y1429999D03*
D16*
G01*
X3769992Y1729996D03*
G01*
X3629992Y1729996D03*
D17*
G01*
X2579994Y1789996D03*
G01*
X2719994Y1789996D03*
D18*
G01*
X2819994Y1189997D03*
G01*
X2819994Y1329997D03*
G01*
X3139993Y1089997D03*
G01*
X3139993Y1229997D03*
G01*
X4239991Y1289997D03*
G01*
X4239991Y1429997D03*
D17*
G01*
X339999Y729998D03*
G01*
X479999Y729998D03*
D18*
G01*
X1479997Y1884994D03*
G01*
X1479997Y2024994D03*
G01*
X2188994Y1887997D03*
G01*
X2188994Y2027996D03*
G01*
X2104997Y1189997D03*
G01*
X2104997Y1329997D03*
G01*
X1354998Y1189997D03*
G01*
X1354998Y1329997D03*
D19*
G01*
X444999Y383999D03*
D20*
G01*
X699007Y383997D03*
G01*
X953007Y383997D03*
G01*
X1207007Y383997D03*
G01*
X1461007Y383997D03*
G01*
X1715007Y383997D03*
G01*
X1969008Y383997D03*
G01*
X2223008Y383997D03*
D21*
G01*
X6286982Y383997D03*
G01*
X6032982Y383997D03*
G01*
X5778982Y383997D03*
G01*
X5524982Y383997D03*
G01*
X5270982Y383997D03*
G01*
X5016982Y383997D03*
G01*
X4762982Y383997D03*
G01*
X4508982Y383997D03*
G01*
X4254982Y383997D03*
D22*
G01*
X4000990Y383999D03*
D23*
G01*
X6519986Y1829996D03*
G01*
X6319987Y1029997D03*
G01*
X5819988Y1829996D03*
D24*
G01*
X694673Y729998D03*
D25*
G01*
X845323Y729998D03*
D26*
G01*
X4998389Y1259997D03*
G01*
X5201589Y1259997D03*
G01*
X4998389Y1619996D03*
G01*
X5201589Y1619996D03*
D27*
G01*
X3382009Y1156004D03*
G01*
X3431997Y1156004D03*
G01*
X3482009Y1156004D03*
G01*
X3531997Y1156004D03*
G01*
X3582009Y1156004D03*
G01*
X3631996Y1156004D03*
D28*
G01*
X3707002Y1231011D03*
G01*
X3707002Y1280998D03*
G01*
X3707002Y1331010D03*
G01*
X3707002Y1380997D03*
G01*
X3707002Y1431010D03*
G01*
X3707002Y1480997D03*
D27*
G01*
X3631996Y1556004D03*
G01*
X3582009Y1556004D03*
G01*
X3531997Y1556004D03*
G01*
X3482009Y1556004D03*
G01*
X3431997Y1556004D03*
G01*
X3382797Y1556004D03*
D28*
G01*
X3307003Y1480997D03*
G01*
X3307003Y1431010D03*
G01*
X3307003Y1380997D03*
G01*
X3307003Y1331010D03*
G01*
X3307003Y1280998D03*
G01*
X3307003Y1231011D03*
D29*
G01*
X3508237Y1355996D03*
D30*
G01*
X1750595Y2025103D03*
G01*
X1750595Y1930107D03*
G01*
X1750595Y1834908D03*
D31*
G01*
X2009396Y1834908D03*
G01*
X2009396Y2024900D03*
D30*
G01*
X1625597Y1330106D03*
G01*
X1625597Y1235110D03*
G01*
X1625597Y1139911D03*
D31*
G01*
X1884398Y1139911D03*
G01*
X1884398Y1329903D03*
M02*
