G04 Layer: BottomLayer*
G04 EasyEDA v6.5.42, 2024-04-19 21:15:47*
G04 b74b0dd8b7a74548b8b14c9367106a0f,9fa9616398974da3a60ce9969dc7753a,10*
G04 Gerber Generator version 0.2*
G04 Scale: 100 percent, Rotated: No, Reflected: No *
G04 Dimensions in millimeters *
G04 leading zeros omitted , absolute positions ,4 integer and 5 decimal *
%FSLAX45Y45*%
%MOMM*%

%ADD10C,0.3000*%
%ADD11R,1.5000X1.5000*%
%ADD12C,1.5000*%
%ADD13C,1.7000*%
%ADD14R,1.5748X1.7000*%
%ADD15C,0.6200*%

%LPD*%
G36*
X674979Y912215D02*
G01*
X666750Y890524D01*
X713232Y890524D01*
X705002Y912215D01*
G37*
G36*
X3149498Y1453235D02*
G01*
X3127806Y1445006D01*
X3127806Y1414983D01*
X3149498Y1406753D01*
G37*
G36*
X3900932Y1141933D02*
G01*
X3868064Y1109065D01*
X3889248Y1099566D01*
X3910431Y1120749D01*
G37*
G36*
X3890924Y1281938D02*
G01*
X3858056Y1249070D01*
X3879240Y1239570D01*
X3900424Y1260754D01*
G37*
G36*
X5001971Y499719D02*
G01*
X4953254Y440232D01*
X5080762Y440232D01*
X5031994Y499719D01*
G37*
G36*
X5285282Y499821D02*
G01*
X5255310Y499618D01*
X5206898Y439826D01*
X5334406Y440588D01*
G37*
D10*
X3869994Y1140002D02*
G01*
X4309996Y700001D01*
X4879987Y700001D01*
X5016995Y562998D01*
X5016995Y384002D01*
X5270995Y384002D02*
G01*
X5269991Y550001D01*
X5029995Y789998D01*
X4349996Y789998D01*
X3859987Y1280007D01*
X689998Y869998D02*
G01*
X689998Y1239997D01*
X689998Y1239997D02*
G01*
X879995Y1429997D01*
X3170001Y1429997D01*
D11*
G01*
X445007Y383997D03*
D12*
G01*
X699007Y383997D03*
G01*
X953007Y383997D03*
G01*
X1207007Y383997D03*
G01*
X1461007Y383997D03*
G01*
X1715007Y383997D03*
G01*
X1969008Y383997D03*
G01*
X2223008Y383997D03*
D13*
G01*
X6286982Y383997D03*
G01*
X6032982Y383997D03*
G01*
X5778982Y383997D03*
G01*
X5524982Y383997D03*
G01*
X5270982Y383997D03*
G01*
X5016982Y383997D03*
G01*
X4762982Y383997D03*
G01*
X4508982Y383997D03*
G01*
X4254982Y383997D03*
D14*
G01*
X4000982Y383997D03*
D15*
G01*
X1754987Y1234998D03*
G01*
X1224991Y1189989D03*
G01*
X3859987Y1280007D03*
G01*
X3869994Y1140002D03*
G01*
X3458184Y1305991D03*
G01*
X3558184Y1305991D03*
G01*
X3558184Y1405991D03*
G01*
X3458184Y1405991D03*
G01*
X210007Y729995D03*
G01*
X970000Y729995D03*
G01*
X3169996Y1429994D03*
G01*
X689990Y870000D03*
G01*
X1350010Y1884984D03*
G01*
X1880006Y1929993D03*
G01*
X2399995Y1729994D03*
G01*
X2580004Y1929993D03*
G01*
X3159988Y1819986D03*
G01*
X2318994Y1888007D03*
G01*
X3289985Y1089990D03*
G01*
X3069996Y940003D03*
G01*
X2699994Y1189989D03*
G01*
X2419984Y1129995D03*
G01*
X2589987Y780008D03*
G01*
X3899992Y1729994D03*
G01*
X4599990Y1219987D03*
G01*
X4109999Y1289989D03*
G01*
X4599990Y1429994D03*
G01*
X6559981Y2029993D03*
G01*
X6479997Y2029993D03*
G01*
X2245004Y1189989D03*
G01*
X1347998Y2024997D03*
G01*
X1229997Y1329997D03*
M02*
